<?xml version="1.0" encoding="utf-8" standalone="no"?>
<!DOCTYPE svg PUBLIC "-//W3C//DTD SVG 1.1//EN"
  "http://www.w3.org/Graphics/SVG/1.1/DTD/svg11.dtd">
<svg xmlns:xlink="http://www.w3.org/1999/xlink" width="288pt" height="216pt" viewBox="0 0 288 216" xmlns="http://www.w3.org/2000/svg" version="1.1">
 <metadata>
  <rdf:RDF xmlns:dc="http://purl.org/dc/elements/1.1/" xmlns:cc="http://creativecommons.org/ns#" xmlns:rdf="http://www.w3.org/1999/02/22-rdf-syntax-ns#">
   <cc:Work>
    <dc:type rdf:resource="http://purl.org/dc/dcmitype/StillImage"/>
    <dc:date>2024-02-11T08:00:30.763540</dc:date>
    <dc:format>image/svg+xml</dc:format>
    <dc:creator>
     <cc:Agent>
      <dc:title>Matplotlib v3.7.2, https://matplotlib.org/</dc:title>
     </cc:Agent>
    </dc:creator>
   </cc:Work>
  </rdf:RDF>
 </metadata>
 <defs>
  <style type="text/css">*{stroke-linejoin: round; stroke-linecap: butt}</style>
 </defs>
 <g id="figure_1">
  <g id="patch_1">
   <path d="M 0 216 
L 288 216 
L 288 0 
L 0 0 
L 0 216 
z
" style="fill: none"/>
  </g>
  <g id="axes_1">
   <g id="patch_2">
    <path d="M 36 192.24 
L 259.2 192.24 
L 259.2 25.92 
L 36 25.92 
L 36 192.24 
z
" style="fill: none"/>
   </g>
   <g id="matplotlib.axis_1">
    <g id="xtick_1">
     <g id="line2d_1">
      <path d="M 36 192.24 
L 36 25.92 
" clip-path="url(#p90659fab91)" style="fill: none; stroke: #808080; stroke-linecap: round"/>
     </g>
     <g id="text_1">
      <!-- −4 -->
      <g style="fill: #ffb000" transform="translate(27.891797 210.098281) scale(0.11 -0.11)">
       <defs>
        <path id="DejaVuSans-2212" d="M 678 2272 
L 4684 2272 
L 4684 1741 
L 678 1741 
L 678 2272 
z
" transform="scale(0.015625)"/>
        <path id="DejaVuSans-34" d="M 2419 4116 
L 825 1625 
L 2419 1625 
L 2419 4116 
z
M 2253 4666 
L 3047 4666 
L 3047 1625 
L 3713 1625 
L 3713 1100 
L 3047 1100 
L 3047 0 
L 2419 0 
L 2419 1100 
L 313 1100 
L 313 1709 
L 2253 4666 
z
" transform="scale(0.015625)"/>
       </defs>
       <use xlink:href="#DejaVuSans-2212"/>
       <use xlink:href="#DejaVuSans-34" x="83.789062"/>
      </g>
     </g>
    </g>
    <g id="xtick_2">
     <g id="line2d_2">
      <path d="M 91.8 192.24 
L 91.8 25.92 
" clip-path="url(#p90659fab91)" style="fill: none; stroke: #808080; stroke-linecap: round"/>
     </g>
     <g id="text_2">
      <!-- −2 -->
      <g style="fill: #ffb000" transform="translate(83.691797 210.098281) scale(0.11 -0.11)">
       <defs>
        <path id="DejaVuSans-32" d="M 1228 531 
L 3431 531 
L 3431 0 
L 469 0 
L 469 531 
Q 828 903 1448 1529 
Q 2069 2156 2228 2338 
Q 2531 2678 2651 2914 
Q 2772 3150 2772 3378 
Q 2772 3750 2511 3984 
Q 2250 4219 1831 4219 
Q 1534 4219 1204 4116 
Q 875 4013 500 3803 
L 500 4441 
Q 881 4594 1212 4672 
Q 1544 4750 1819 4750 
Q 2544 4750 2975 4387 
Q 3406 4025 3406 3419 
Q 3406 3131 3298 2873 
Q 3191 2616 2906 2266 
Q 2828 2175 2409 1742 
Q 1991 1309 1228 531 
z
" transform="scale(0.015625)"/>
       </defs>
       <use xlink:href="#DejaVuSans-2212"/>
       <use xlink:href="#DejaVuSans-32" x="83.789062"/>
      </g>
     </g>
    </g>
    <g id="xtick_3">
     <g id="line2d_3">
      <path d="M 147.6 192.24 
L 147.6 25.92 
" clip-path="url(#p90659fab91)" style="fill: none; stroke: #808080; stroke-linecap: round"/>
     </g>
     <g id="text_3">
      <!-- 0 -->
      <g style="fill: #ffb000" transform="translate(144.100625 210.098281) scale(0.11 -0.11)">
       <defs>
        <path id="DejaVuSans-30" d="M 2034 4250 
Q 1547 4250 1301 3770 
Q 1056 3291 1056 2328 
Q 1056 1369 1301 889 
Q 1547 409 2034 409 
Q 2525 409 2770 889 
Q 3016 1369 3016 2328 
Q 3016 3291 2770 3770 
Q 2525 4250 2034 4250 
z
M 2034 4750 
Q 2819 4750 3233 4129 
Q 3647 3509 3647 2328 
Q 3647 1150 3233 529 
Q 2819 -91 2034 -91 
Q 1250 -91 836 529 
Q 422 1150 422 2328 
Q 422 3509 836 4129 
Q 1250 4750 2034 4750 
z
" transform="scale(0.015625)"/>
       </defs>
       <use xlink:href="#DejaVuSans-30"/>
      </g>
     </g>
    </g>
    <g id="xtick_4">
     <g id="line2d_4">
      <path d="M 203.4 192.24 
L 203.4 25.92 
" clip-path="url(#p90659fab91)" style="fill: none; stroke: #808080; stroke-linecap: round"/>
     </g>
     <g id="text_4">
      <!-- 2 -->
      <g style="fill: #ffb000" transform="translate(199.900625 210.098281) scale(0.11 -0.11)">
       <use xlink:href="#DejaVuSans-32"/>
      </g>
     </g>
    </g>
    <g id="xtick_5">
     <g id="line2d_5">
      <path d="M 259.2 192.24 
L 259.2 25.92 
" clip-path="url(#p90659fab91)" style="fill: none; stroke: #808080; stroke-linecap: round"/>
     </g>
     <g id="text_5">
      <!-- 4 -->
      <g style="fill: #ffb000" transform="translate(255.700625 210.098281) scale(0.11 -0.11)">
       <use xlink:href="#DejaVuSans-34"/>
      </g>
     </g>
    </g>
    <g id="text_6">
     <!-- $\hat{y}-y$ -->
     <g style="fill: #ffb000" transform="translate(133.08 227.425938) scale(0.12 -0.12)">
      <defs>
       <path id="DejaVuSans-302" d="M -1831 5119 
L -1369 5119 
L -603 3944 
L -1038 3944 
L -1600 4709 
L -2163 3944 
L -2597 3944 
L -1831 5119 
z
M -1600 3584 
L -1600 3584 
z
" transform="scale(0.015625)"/>
       <path id="DejaVuSans-Oblique-79" d="M 1588 -325 
Q 1188 -997 936 -1164 
Q 684 -1331 294 -1331 
L -159 -1331 
L -63 -850 
L 269 -850 
Q 509 -850 678 -719 
Q 847 -588 1056 -206 
L 1234 128 
L 459 3500 
L 1069 3500 
L 1650 819 
L 3256 3500 
L 3859 3500 
L 1588 -325 
z
" transform="scale(0.015625)"/>
      </defs>
      <use xlink:href="#DejaVuSans-302" transform="translate(62.373047 12.015625)"/>
      <use xlink:href="#DejaVuSans-Oblique-79" transform="translate(0 0.828125)"/>
      <use xlink:href="#DejaVuSans-2212" transform="translate(78.662109 0.828125)"/>
      <use xlink:href="#DejaVuSans-Oblique-79" transform="translate(181.933594 0.828125)"/>
     </g>
    </g>
   </g>
   <g id="matplotlib.axis_2">
    <g id="ytick_1">
     <g id="line2d_6">
      <path d="M 36 192.24 
L 259.2 192.24 
" clip-path="url(#p90659fab91)" style="fill: none; stroke: #808080; stroke-linecap: round"/>
     </g>
     <g id="text_7">
      <!-- −1.5 -->
      <g style="fill: #ffb000" transform="translate(-0.211094 196.419141) scale(0.11 -0.11)">
       <defs>
        <path id="DejaVuSans-31" d="M 794 531 
L 1825 531 
L 1825 4091 
L 703 3866 
L 703 4441 
L 1819 4666 
L 2450 4666 
L 2450 531 
L 3481 531 
L 3481 0 
L 794 0 
L 794 531 
z
" transform="scale(0.015625)"/>
        <path id="DejaVuSans-2e" d="M 684 794 
L 1344 794 
L 1344 0 
L 684 0 
L 684 794 
z
" transform="scale(0.015625)"/>
        <path id="DejaVuSans-35" d="M 691 4666 
L 3169 4666 
L 3169 4134 
L 1269 4134 
L 1269 2991 
Q 1406 3038 1543 3061 
Q 1681 3084 1819 3084 
Q 2600 3084 3056 2656 
Q 3513 2228 3513 1497 
Q 3513 744 3044 326 
Q 2575 -91 1722 -91 
Q 1428 -91 1123 -41 
Q 819 9 494 109 
L 494 744 
Q 775 591 1075 516 
Q 1375 441 1709 441 
Q 2250 441 2565 725 
Q 2881 1009 2881 1497 
Q 2881 1984 2565 2268 
Q 2250 2553 1709 2553 
Q 1456 2553 1204 2497 
Q 953 2441 691 2322 
L 691 4666 
z
" transform="scale(0.015625)"/>
       </defs>
       <use xlink:href="#DejaVuSans-2212"/>
       <use xlink:href="#DejaVuSans-31" x="83.789062"/>
       <use xlink:href="#DejaVuSans-2e" x="147.412109"/>
       <use xlink:href="#DejaVuSans-35" x="179.199219"/>
      </g>
     </g>
    </g>
    <g id="ytick_2">
     <g id="line2d_7">
      <path d="M 36 164.52 
L 259.2 164.52 
" clip-path="url(#p90659fab91)" style="fill: none; stroke: #808080; stroke-linecap: round"/>
     </g>
     <g id="text_8">
      <!-- −1.0 -->
      <g style="fill: #ffb000" transform="translate(-0.211094 168.699141) scale(0.11 -0.11)">
       <use xlink:href="#DejaVuSans-2212"/>
       <use xlink:href="#DejaVuSans-31" x="83.789062"/>
       <use xlink:href="#DejaVuSans-2e" x="147.412109"/>
       <use xlink:href="#DejaVuSans-30" x="179.199219"/>
      </g>
     </g>
    </g>
    <g id="ytick_3">
     <g id="line2d_8">
      <path d="M 36 136.8 
L 259.2 136.8 
" clip-path="url(#p90659fab91)" style="fill: none; stroke: #808080; stroke-linecap: round"/>
     </g>
     <g id="text_9">
      <!-- −0.5 -->
      <g style="fill: #ffb000" transform="translate(-0.211094 140.979141) scale(0.11 -0.11)">
       <use xlink:href="#DejaVuSans-2212"/>
       <use xlink:href="#DejaVuSans-30" x="83.789062"/>
       <use xlink:href="#DejaVuSans-2e" x="147.412109"/>
       <use xlink:href="#DejaVuSans-35" x="179.199219"/>
      </g>
     </g>
    </g>
    <g id="ytick_4">
     <g id="line2d_9">
      <path d="M 36 109.08 
L 259.2 109.08 
" clip-path="url(#p90659fab91)" style="fill: none; stroke: #808080; stroke-linecap: round"/>
     </g>
     <g id="text_10">
      <!-- 0.0 -->
      <g style="fill: #ffb000" transform="translate(9.006563 113.259141) scale(0.11 -0.11)">
       <use xlink:href="#DejaVuSans-30"/>
       <use xlink:href="#DejaVuSans-2e" x="63.623047"/>
       <use xlink:href="#DejaVuSans-30" x="95.410156"/>
      </g>
     </g>
    </g>
    <g id="ytick_5">
     <g id="line2d_10">
      <path d="M 36 81.36 
L 259.2 81.36 
" clip-path="url(#p90659fab91)" style="fill: none; stroke: #808080; stroke-linecap: round"/>
     </g>
     <g id="text_11">
      <!-- 0.5 -->
      <g style="fill: #ffb000" transform="translate(9.006563 85.539141) scale(0.11 -0.11)">
       <use xlink:href="#DejaVuSans-30"/>
       <use xlink:href="#DejaVuSans-2e" x="63.623047"/>
       <use xlink:href="#DejaVuSans-35" x="95.410156"/>
      </g>
     </g>
    </g>
    <g id="ytick_6">
     <g id="line2d_11">
      <path d="M 36 53.64 
L 259.2 53.64 
" clip-path="url(#p90659fab91)" style="fill: none; stroke: #808080; stroke-linecap: round"/>
     </g>
     <g id="text_12">
      <!-- 1.0 -->
      <g style="fill: #ffb000" transform="translate(9.006563 57.819141) scale(0.11 -0.11)">
       <use xlink:href="#DejaVuSans-31"/>
       <use xlink:href="#DejaVuSans-2e" x="63.623047"/>
       <use xlink:href="#DejaVuSans-30" x="95.410156"/>
      </g>
     </g>
    </g>
    <g id="ytick_7">
     <g id="line2d_12">
      <path d="M 36 25.92 
L 259.2 25.92 
" clip-path="url(#p90659fab91)" style="fill: none; stroke: #808080; stroke-linecap: round"/>
     </g>
     <g id="text_13">
      <!-- 1.5 -->
      <g style="fill: #ffb000" transform="translate(9.006563 30.099141) scale(0.11 -0.11)">
       <use xlink:href="#DejaVuSans-31"/>
       <use xlink:href="#DejaVuSans-2e" x="63.623047"/>
       <use xlink:href="#DejaVuSans-35" x="95.410156"/>
      </g>
     </g>
    </g>
    <g id="text_14">
     <!-- Loss -->
     <g style="fill: #ffb000" transform="translate(-6.706719 122.240625) rotate(-90) scale(0.12 -0.12)">
      <defs>
       <path id="DejaVuSans-4c" d="M 628 4666 
L 1259 4666 
L 1259 531 
L 3531 531 
L 3531 0 
L 628 0 
L 628 4666 
z
" transform="scale(0.015625)"/>
       <path id="DejaVuSans-6f" d="M 1959 3097 
Q 1497 3097 1228 2736 
Q 959 2375 959 1747 
Q 959 1119 1226 758 
Q 1494 397 1959 397 
Q 2419 397 2687 759 
Q 2956 1122 2956 1747 
Q 2956 2369 2687 2733 
Q 2419 3097 1959 3097 
z
M 1959 3584 
Q 2709 3584 3137 3096 
Q 3566 2609 3566 1747 
Q 3566 888 3137 398 
Q 2709 -91 1959 -91 
Q 1206 -91 779 398 
Q 353 888 353 1747 
Q 353 2609 779 3096 
Q 1206 3584 1959 3584 
z
" transform="scale(0.015625)"/>
       <path id="DejaVuSans-73" d="M 2834 3397 
L 2834 2853 
Q 2591 2978 2328 3040 
Q 2066 3103 1784 3103 
Q 1356 3103 1142 2972 
Q 928 2841 928 2578 
Q 928 2378 1081 2264 
Q 1234 2150 1697 2047 
L 1894 2003 
Q 2506 1872 2764 1633 
Q 3022 1394 3022 966 
Q 3022 478 2636 193 
Q 2250 -91 1575 -91 
Q 1294 -91 989 -36 
Q 684 19 347 128 
L 347 722 
Q 666 556 975 473 
Q 1284 391 1588 391 
Q 1994 391 2212 530 
Q 2431 669 2431 922 
Q 2431 1156 2273 1281 
Q 2116 1406 1581 1522 
L 1381 1569 
Q 847 1681 609 1914 
Q 372 2147 372 2553 
Q 372 3047 722 3315 
Q 1072 3584 1716 3584 
Q 2034 3584 2315 3537 
Q 2597 3491 2834 3397 
z
" transform="scale(0.015625)"/>
      </defs>
      <use xlink:href="#DejaVuSans-4c"/>
      <use xlink:href="#DejaVuSans-6f" x="53.962891"/>
      <use xlink:href="#DejaVuSans-73" x="115.144531"/>
      <use xlink:href="#DejaVuSans-73" x="167.244141"/>
     </g>
    </g>
   </g>
   <g id="line2d_13">
    <path d="M 93.28961 217 
L 96.355102 210.908571 
L 103.187755 197.331429 
L 110.020408 183.754286 
L 116.853061 170.177143 
L 123.685714 156.6 
L 130.518367 143.022857 
L 137.35102 129.445714 
L 144.183673 115.868571 
L 151.016327 102.291429 
L 157.84898 88.714286 
L 164.681633 75.137143 
L 171.514286 61.56 
L 178.346939 47.982857 
L 185.179592 34.405714 
L 192.012245 20.828571 
L 198.844898 7.251429 
L 202.997403 -1 
" clip-path="url(#p90659fab91)" style="fill: none; stroke: #4c72b0; stroke-width: 1.5; stroke-linecap: round"/>
   </g>
   <g id="line2d_14">
    <path d="M -1 216.195772 
L 0.697959 215.576866 
L 7.530612 213.024728 
L 14.363265 210.406001 
L 21.195918 207.715021 
L 28.028571 204.945254 
L 34.861224 202.089099 
L 41.693878 199.137624 
L 48.526531 196.080214 
L 55.359184 192.904094 
L 62.191837 189.593659 
L 69.02449 186.129532 
L 75.857143 182.487175 
L 82.689796 178.634817 
L 89.522449 174.53024 
L 96.355102 170.115656 
L 103.187755 165.309257 
L 110.020408 159.99096 
L 116.853061 153.97825 
L 123.685714 146.987846 
L 130.518367 138.592654 
L 137.35102 128.264847 
L 144.183673 115.818611 
L 151.016327 102.341389 
L 157.84898 89.895153 
L 164.681633 79.567346 
L 171.514286 71.172154 
L 178.346939 64.18175 
L 185.179592 58.16904 
L 192.012245 52.850743 
L 198.844898 48.044344 
L 205.677551 43.62976 
L 212.510204 39.525183 
L 219.342857 35.672825 
L 226.17551 32.030468 
L 233.008163 28.566341 
L 239.840816 25.255906 
L 246.673469 22.079786 
L 253.506122 19.022376 
L 260.338776 16.070901 
L 267.171429 13.214746 
L 274.004082 10.444979 
L 280.836735 7.753999 
L 287.669388 5.135272 
L 289 4.63826 
" clip-path="url(#p90659fab91)" style="fill: none; stroke: #dd8452; stroke-width: 1.5; stroke-linecap: round"/>
   </g>
   <g id="line2d_15">
    <path d="M -1 163.56691 
L 0.697959 163.546386 
L 7.530612 163.451877 
L 14.363265 163.343071 
L 21.195918 163.216969 
L 28.028571 163.069757 
L 34.861224 162.896525 
L 41.693878 162.690877 
L 48.526531 162.444369 
L 55.359184 162.145691 
L 62.191837 161.77945 
L 69.02449 161.324344 
L 75.857143 160.750339 
L 82.689796 160.014262 
L 89.522449 159.052791 
L 96.355102 157.771191 
L 103.187755 156.025276 
L 110.020408 153.593342 
L 116.853061 150.136663 
L 123.685714 145.159874 
L 130.518367 138.02821 
L 137.35102 128.19668 
L 144.183673 115.818244 
L 151.016327 102.341756 
L 157.84898 89.96332 
L 164.681633 80.13179 
L 171.514286 73.000126 
L 178.346939 68.023337 
L 185.179592 64.566658 
L 192.012245 62.134724 
L 198.844898 60.388809 
L 205.677551 59.107209 
L 212.510204 58.145738 
L 219.342857 57.409661 
L 226.17551 56.835656 
L 233.008163 56.38055 
L 239.840816 56.014309 
L 246.673469 55.715631 
L 253.506122 55.469123 
L 260.338776 55.263475 
L 267.171429 55.090243 
L 274.004082 54.943031 
L 280.836735 54.816929 
L 287.669388 54.708123 
L 289 54.689718 
" clip-path="url(#p90659fab91)" style="fill: none; stroke: #55a868; stroke-width: 1.5; stroke-linecap: round"/>
   </g>
   <g id="line2d_16">
    <path d="M -1 128.532136 
L 0.697959 128.721636 
L 7.530612 129.542162 
L 14.363265 130.42642 
L 21.195918 131.380644 
L 28.028571 132.411463 
L 34.861224 133.525706 
L 41.693878 134.730041 
L 48.526531 136.030307 
L 55.359184 137.430365 
L 62.191837 138.930121 
L 69.02449 140.522194 
L 75.857143 142.186351 
L 82.689796 143.880297 
L 89.522449 145.524709 
L 96.355102 146.979612 
L 103.187755 148.009208 
L 110.020408 148.235484 
L 116.853061 147.093537 
L 123.685714 143.833433 
L 130.518367 137.665338 
L 137.35102 128.158455 
L 144.183673 115.818057 
L 151.016327 102.341943 
L 157.84898 90.001545 
L 164.681633 80.494662 
L 171.514286 74.326567 
L 178.346939 71.066463 
L 185.179592 69.924516 
L 192.012245 70.150792 
L 198.844898 71.180388 
L 205.677551 72.635291 
L 212.510204 74.279703 
L 219.342857 75.973649 
L 226.17551 77.637806 
L 233.008163 79.229879 
L 239.840816 80.729635 
L 246.673469 82.129693 
L 253.506122 83.429959 
L 260.338776 84.634294 
L 267.171429 85.748537 
L 274.004082 86.779356 
L 280.836735 87.73358 
L 287.669388 88.617838 
L 289 88.77763 
" clip-path="url(#p90659fab91)" style="fill: none; stroke: #c44e52; stroke-width: 1.5; stroke-linecap: round"/>
   </g>
   <g id="line2d_17">
    <path d="M -1 117.820471 
L 0.697959 117.986843 
L 7.530612 118.735318 
L 14.363265 119.574374 
L 21.195918 120.517404 
L 28.028571 121.579781 
L 34.861224 122.778948 
L 41.693878 124.134328 
L 48.526531 125.666873 
L 55.359184 127.397935 
L 62.191837 129.346934 
L 69.02449 131.526924 
L 75.857143 133.936635 
L 82.689796 136.546752 
L 89.522449 139.277389 
L 96.355102 141.963263 
L 103.187755 144.305037 
L 110.020408 145.813373 
L 116.853061 145.773119 
L 123.685714 143.29179 
L 130.518367 137.52787 
L 137.35102 128.145004 
L 144.183673 115.817994 
L 151.016327 102.342006 
L 157.84898 90.014996 
L 164.681633 80.63213 
L 171.514286 74.86821 
L 178.346939 72.386881 
L 185.179592 72.346627 
L 192.012245 73.854963 
L 198.844898 76.196737 
L 205.677551 78.882611 
L 212.510204 81.613248 
L 219.342857 84.223365 
L 226.17551 86.633076 
L 233.008163 88.813066 
L 239.840816 90.762065 
L 246.673469 92.493127 
L 253.506122 94.025672 
L 260.338776 95.381052 
L 267.171429 96.580219 
L 274.004082 97.642596 
L 280.836735 98.585626 
L 287.669388 99.424682 
L 289 99.570443 
" clip-path="url(#p90659fab91)" style="fill: none; stroke: #8172b3; stroke-width: 1.5; stroke-linecap: round"/>
   </g>
   <g id="line2d_18">
    <path d="M -1 113.596323 
L 0.697959 113.720941 
L 7.530612 114.301349 
L 14.363265 114.975427 
L 21.195918 115.760836 
L 28.028571 116.678668 
L 34.861224 117.753904 
L 41.693878 119.015732 
L 48.526531 120.497484 
L 55.359184 122.23578 
L 62.191837 124.268134 
L 69.02449 126.627769 
L 75.857143 129.333643 
L 82.689796 132.372678 
L 89.522449 135.670363 
L 96.355102 139.046164 
L 103.187755 142.154317 
L 110.020408 144.423092 
L 116.853061 145.031461 
L 123.685714 142.996623 
L 130.518367 137.455484 
L 137.35102 128.138136 
L 144.183673 115.817963 
L 151.016327 102.342037 
L 157.84898 90.021864 
L 164.681633 80.704516 
L 171.514286 75.163377 
L 178.346939 73.128539 
L 185.179592 73.736908 
L 192.012245 76.005683 
L 198.844898 79.113836 
L 205.677551 82.489637 
L 212.510204 85.787322 
L 219.342857 88.826357 
L 226.17551 91.532231 
L 233.008163 93.891866 
L 239.840816 95.92422 
L 246.673469 97.662516 
L 253.506122 99.144268 
L 260.338776 100.406096 
L 267.171429 101.481332 
L 274.004082 102.399164 
L 280.836735 103.184573 
L 287.669388 103.858651 
L 289 103.971681 
" clip-path="url(#p90659fab91)" style="fill: none; stroke: #937860; stroke-width: 1.5; stroke-linecap: round"/>
   </g>
   <g id="line2d_19">
    <path d="M -1 109.080229 
L 0.697959 109.080279 
L 7.530612 109.080936 
L 14.363265 109.082956 
L 21.195918 109.088764 
L 28.028571 109.104402 
L 34.861224 109.143778 
L 41.693878 109.236411 
L 48.526531 109.439753 
L 55.359184 109.855579 
L 62.191837 110.646069 
L 69.02449 112.039106 
L 75.857143 114.30597 
L 82.689796 117.693297 
L 89.522449 122.301663 
L 96.355102 127.929635 
L 103.187755 133.938949 
L 110.020408 139.22484 
L 116.853061 142.368704 
L 123.685714 141.990894 
L 130.518367 137.221815 
L 137.35102 128.116933 
L 144.183673 115.817869 
L 151.016327 102.342131 
L 157.84898 90.043067 
L 164.681633 80.938185 
L 171.514286 76.169106 
L 178.346939 75.791296 
L 185.179592 78.93516 
L 192.012245 84.221051 
L 198.844898 90.230365 
L 205.677551 95.858337 
L 212.510204 100.466703 
L 219.342857 103.85403 
L 226.17551 106.120894 
L 233.008163 107.513931 
L 239.840816 108.304421 
L 246.673469 108.720247 
L 253.506122 108.923589 
L 260.338776 109.016222 
L 267.171429 109.055598 
L 274.004082 109.071236 
L 280.836735 109.077044 
L 287.669388 109.079064 
L 289 109.079192 
" clip-path="url(#p90659fab91)" style="fill: none; stroke: #da8bc3; stroke-width: 1.5; stroke-linecap: round"/>
   </g>
   <g id="patch_3">
    <path d="M 36 192.24 
L 36 25.92 
" style="fill: none; stroke: #cccccc; stroke-width: 1.25; stroke-linejoin: miter; stroke-linecap: square"/>
   </g>
   <g id="patch_4">
    <path d="M 259.2 192.24 
L 259.2 25.92 
" style="fill: none; stroke: #cccccc; stroke-width: 1.25; stroke-linejoin: miter; stroke-linecap: square"/>
   </g>
   <g id="patch_5">
    <path d="M 36 192.24 
L 259.2 192.24 
" style="fill: none; stroke: #cccccc; stroke-width: 1.25; stroke-linejoin: miter; stroke-linecap: square"/>
   </g>
   <g id="patch_6">
    <path d="M 36 25.92 
L 259.2 25.92 
" style="fill: none; stroke: #cccccc; stroke-width: 1.25; stroke-linejoin: miter; stroke-linecap: square"/>
   </g>
   <g id="text_15">
    <!-- Generic Loss function gradients. $c=1.0$ -->
    <g style="fill: #ffb000" transform="translate(28.38 19.92) scale(0.12 -0.12)">
     <defs>
      <path id="DejaVuSans-47" d="M 3809 666 
L 3809 1919 
L 2778 1919 
L 2778 2438 
L 4434 2438 
L 4434 434 
Q 4069 175 3628 42 
Q 3188 -91 2688 -91 
Q 1594 -91 976 548 
Q 359 1188 359 2328 
Q 359 3472 976 4111 
Q 1594 4750 2688 4750 
Q 3144 4750 3555 4637 
Q 3966 4525 4313 4306 
L 4313 3634 
Q 3963 3931 3569 4081 
Q 3175 4231 2741 4231 
Q 1884 4231 1454 3753 
Q 1025 3275 1025 2328 
Q 1025 1384 1454 906 
Q 1884 428 2741 428 
Q 3075 428 3337 486 
Q 3600 544 3809 666 
z
" transform="scale(0.015625)"/>
      <path id="DejaVuSans-65" d="M 3597 1894 
L 3597 1613 
L 953 1613 
Q 991 1019 1311 708 
Q 1631 397 2203 397 
Q 2534 397 2845 478 
Q 3156 559 3463 722 
L 3463 178 
Q 3153 47 2828 -22 
Q 2503 -91 2169 -91 
Q 1331 -91 842 396 
Q 353 884 353 1716 
Q 353 2575 817 3079 
Q 1281 3584 2069 3584 
Q 2775 3584 3186 3129 
Q 3597 2675 3597 1894 
z
M 3022 2063 
Q 3016 2534 2758 2815 
Q 2500 3097 2075 3097 
Q 1594 3097 1305 2825 
Q 1016 2553 972 2059 
L 3022 2063 
z
" transform="scale(0.015625)"/>
      <path id="DejaVuSans-6e" d="M 3513 2113 
L 3513 0 
L 2938 0 
L 2938 2094 
Q 2938 2591 2744 2837 
Q 2550 3084 2163 3084 
Q 1697 3084 1428 2787 
Q 1159 2491 1159 1978 
L 1159 0 
L 581 0 
L 581 3500 
L 1159 3500 
L 1159 2956 
Q 1366 3272 1645 3428 
Q 1925 3584 2291 3584 
Q 2894 3584 3203 3211 
Q 3513 2838 3513 2113 
z
" transform="scale(0.015625)"/>
      <path id="DejaVuSans-72" d="M 2631 2963 
Q 2534 3019 2420 3045 
Q 2306 3072 2169 3072 
Q 1681 3072 1420 2755 
Q 1159 2438 1159 1844 
L 1159 0 
L 581 0 
L 581 3500 
L 1159 3500 
L 1159 2956 
Q 1341 3275 1631 3429 
Q 1922 3584 2338 3584 
Q 2397 3584 2469 3576 
Q 2541 3569 2628 3553 
L 2631 2963 
z
" transform="scale(0.015625)"/>
      <path id="DejaVuSans-69" d="M 603 3500 
L 1178 3500 
L 1178 0 
L 603 0 
L 603 3500 
z
M 603 4863 
L 1178 4863 
L 1178 4134 
L 603 4134 
L 603 4863 
z
" transform="scale(0.015625)"/>
      <path id="DejaVuSans-63" d="M 3122 3366 
L 3122 2828 
Q 2878 2963 2633 3030 
Q 2388 3097 2138 3097 
Q 1578 3097 1268 2742 
Q 959 2388 959 1747 
Q 959 1106 1268 751 
Q 1578 397 2138 397 
Q 2388 397 2633 464 
Q 2878 531 3122 666 
L 3122 134 
Q 2881 22 2623 -34 
Q 2366 -91 2075 -91 
Q 1284 -91 818 406 
Q 353 903 353 1747 
Q 353 2603 823 3093 
Q 1294 3584 2113 3584 
Q 2378 3584 2631 3529 
Q 2884 3475 3122 3366 
z
" transform="scale(0.015625)"/>
      <path id="DejaVuSans-20" transform="scale(0.015625)"/>
      <path id="DejaVuSans-66" d="M 2375 4863 
L 2375 4384 
L 1825 4384 
Q 1516 4384 1395 4259 
Q 1275 4134 1275 3809 
L 1275 3500 
L 2222 3500 
L 2222 3053 
L 1275 3053 
L 1275 0 
L 697 0 
L 697 3053 
L 147 3053 
L 147 3500 
L 697 3500 
L 697 3744 
Q 697 4328 969 4595 
Q 1241 4863 1831 4863 
L 2375 4863 
z
" transform="scale(0.015625)"/>
      <path id="DejaVuSans-75" d="M 544 1381 
L 544 3500 
L 1119 3500 
L 1119 1403 
Q 1119 906 1312 657 
Q 1506 409 1894 409 
Q 2359 409 2629 706 
Q 2900 1003 2900 1516 
L 2900 3500 
L 3475 3500 
L 3475 0 
L 2900 0 
L 2900 538 
Q 2691 219 2414 64 
Q 2138 -91 1772 -91 
Q 1169 -91 856 284 
Q 544 659 544 1381 
z
M 1991 3584 
L 1991 3584 
z
" transform="scale(0.015625)"/>
      <path id="DejaVuSans-74" d="M 1172 4494 
L 1172 3500 
L 2356 3500 
L 2356 3053 
L 1172 3053 
L 1172 1153 
Q 1172 725 1289 603 
Q 1406 481 1766 481 
L 2356 481 
L 2356 0 
L 1766 0 
Q 1100 0 847 248 
Q 594 497 594 1153 
L 594 3053 
L 172 3053 
L 172 3500 
L 594 3500 
L 594 4494 
L 1172 4494 
z
" transform="scale(0.015625)"/>
      <path id="DejaVuSans-67" d="M 2906 1791 
Q 2906 2416 2648 2759 
Q 2391 3103 1925 3103 
Q 1463 3103 1205 2759 
Q 947 2416 947 1791 
Q 947 1169 1205 825 
Q 1463 481 1925 481 
Q 2391 481 2648 825 
Q 2906 1169 2906 1791 
z
M 3481 434 
Q 3481 -459 3084 -895 
Q 2688 -1331 1869 -1331 
Q 1566 -1331 1297 -1286 
Q 1028 -1241 775 -1147 
L 775 -588 
Q 1028 -725 1275 -790 
Q 1522 -856 1778 -856 
Q 2344 -856 2625 -561 
Q 2906 -266 2906 331 
L 2906 616 
Q 2728 306 2450 153 
Q 2172 0 1784 0 
Q 1141 0 747 490 
Q 353 981 353 1791 
Q 353 2603 747 3093 
Q 1141 3584 1784 3584 
Q 2172 3584 2450 3431 
Q 2728 3278 2906 2969 
L 2906 3500 
L 3481 3500 
L 3481 434 
z
" transform="scale(0.015625)"/>
      <path id="DejaVuSans-61" d="M 2194 1759 
Q 1497 1759 1228 1600 
Q 959 1441 959 1056 
Q 959 750 1161 570 
Q 1363 391 1709 391 
Q 2188 391 2477 730 
Q 2766 1069 2766 1631 
L 2766 1759 
L 2194 1759 
z
M 3341 1997 
L 3341 0 
L 2766 0 
L 2766 531 
Q 2569 213 2275 61 
Q 1981 -91 1556 -91 
Q 1019 -91 701 211 
Q 384 513 384 1019 
Q 384 1609 779 1909 
Q 1175 2209 1959 2209 
L 2766 2209 
L 2766 2266 
Q 2766 2663 2505 2880 
Q 2244 3097 1772 3097 
Q 1472 3097 1187 3025 
Q 903 2953 641 2809 
L 641 3341 
Q 956 3463 1253 3523 
Q 1550 3584 1831 3584 
Q 2591 3584 2966 3190 
Q 3341 2797 3341 1997 
z
" transform="scale(0.015625)"/>
      <path id="DejaVuSans-64" d="M 2906 2969 
L 2906 4863 
L 3481 4863 
L 3481 0 
L 2906 0 
L 2906 525 
Q 2725 213 2448 61 
Q 2172 -91 1784 -91 
Q 1150 -91 751 415 
Q 353 922 353 1747 
Q 353 2572 751 3078 
Q 1150 3584 1784 3584 
Q 2172 3584 2448 3432 
Q 2725 3281 2906 2969 
z
M 947 1747 
Q 947 1113 1208 752 
Q 1469 391 1925 391 
Q 2381 391 2643 752 
Q 2906 1113 2906 1747 
Q 2906 2381 2643 2742 
Q 2381 3103 1925 3103 
Q 1469 3103 1208 2742 
Q 947 2381 947 1747 
z
" transform="scale(0.015625)"/>
      <path id="DejaVuSans-Oblique-63" d="M 3431 3366 
L 3316 2797 
Q 3109 2947 2876 3022 
Q 2644 3097 2394 3097 
Q 2119 3097 1870 3000 
Q 1622 2903 1453 2725 
Q 1184 2453 1037 2087 
Q 891 1722 891 1331 
Q 891 859 1127 628 
Q 1363 397 1844 397 
Q 2081 397 2348 469 
Q 2616 541 2906 684 
L 2797 116 
Q 2547 13 2283 -39 
Q 2019 -91 1741 -91 
Q 1044 -91 669 257 
Q 294 606 294 1253 
Q 294 1797 489 2255 
Q 684 2713 1069 3078 
Q 1331 3328 1684 3456 
Q 2038 3584 2456 3584 
Q 2700 3584 2940 3529 
Q 3181 3475 3431 3366 
z
" transform="scale(0.015625)"/>
      <path id="DejaVuSans-3d" d="M 678 2906 
L 4684 2906 
L 4684 2381 
L 678 2381 
L 678 2906 
z
M 678 1631 
L 4684 1631 
L 4684 1100 
L 678 1100 
L 678 1631 
z
" transform="scale(0.015625)"/>
     </defs>
     <use xlink:href="#DejaVuSans-47" transform="translate(0 0.015625)"/>
     <use xlink:href="#DejaVuSans-65" transform="translate(77.490234 0.015625)"/>
     <use xlink:href="#DejaVuSans-6e" transform="translate(139.013672 0.015625)"/>
     <use xlink:href="#DejaVuSans-65" transform="translate(202.392578 0.015625)"/>
     <use xlink:href="#DejaVuSans-72" transform="translate(263.916016 0.015625)"/>
     <use xlink:href="#DejaVuSans-69" transform="translate(305.029297 0.015625)"/>
     <use xlink:href="#DejaVuSans-63" transform="translate(332.8125 0.015625)"/>
     <use xlink:href="#DejaVuSans-20" transform="translate(387.792969 0.015625)"/>
     <use xlink:href="#DejaVuSans-4c" transform="translate(419.580078 0.015625)"/>
     <use xlink:href="#DejaVuSans-6f" transform="translate(475.292969 0.015625)"/>
     <use xlink:href="#DejaVuSans-73" transform="translate(536.474609 0.015625)"/>
     <use xlink:href="#DejaVuSans-73" transform="translate(588.574219 0.015625)"/>
     <use xlink:href="#DejaVuSans-20" transform="translate(640.673828 0.015625)"/>
     <use xlink:href="#DejaVuSans-66" transform="translate(672.460938 0.015625)"/>
     <use xlink:href="#DejaVuSans-75" transform="translate(707.666016 0.015625)"/>
     <use xlink:href="#DejaVuSans-6e" transform="translate(771.044922 0.015625)"/>
     <use xlink:href="#DejaVuSans-63" transform="translate(834.423828 0.015625)"/>
     <use xlink:href="#DejaVuSans-74" transform="translate(889.404297 0.015625)"/>
     <use xlink:href="#DejaVuSans-69" transform="translate(928.613281 0.015625)"/>
     <use xlink:href="#DejaVuSans-6f" transform="translate(956.396484 0.015625)"/>
     <use xlink:href="#DejaVuSans-6e" transform="translate(1017.578125 0.015625)"/>
     <use xlink:href="#DejaVuSans-20" transform="translate(1080.957031 0.015625)"/>
     <use xlink:href="#DejaVuSans-67" transform="translate(1112.744141 0.015625)"/>
     <use xlink:href="#DejaVuSans-72" transform="translate(1176.220703 0.015625)"/>
     <use xlink:href="#DejaVuSans-61" transform="translate(1217.333984 0.015625)"/>
     <use xlink:href="#DejaVuSans-64" transform="translate(1278.613281 0.015625)"/>
     <use xlink:href="#DejaVuSans-69" transform="translate(1342.089844 0.015625)"/>
     <use xlink:href="#DejaVuSans-65" transform="translate(1369.873047 0.015625)"/>
     <use xlink:href="#DejaVuSans-6e" transform="translate(1431.396484 0.015625)"/>
     <use xlink:href="#DejaVuSans-74" transform="translate(1494.775391 0.015625)"/>
     <use xlink:href="#DejaVuSans-73" transform="translate(1533.984375 0.015625)"/>
     <use xlink:href="#DejaVuSans-2e" transform="translate(1586.083984 0.015625)"/>
     <use xlink:href="#DejaVuSans-20" transform="translate(1617.871094 0.015625)"/>
     <use xlink:href="#DejaVuSans-Oblique-63" transform="translate(1649.658203 0.015625)"/>
     <use xlink:href="#DejaVuSans-3d" transform="translate(1724.121094 0.015625)"/>
     <use xlink:href="#DejaVuSans-31" transform="translate(1827.392578 0.015625)"/>
     <use xlink:href="#DejaVuSans-2e" transform="translate(1891.015625 0.015625)"/>
     <use xlink:href="#DejaVuSans-30" transform="translate(1922.802734 0.015625)"/>
    </g>
   </g>
   <g id="legend_1">
    <g id="patch_7">
     <path d="M 43.7 147.741563 
L 128.95 147.741563 
Q 131.15 147.741563 131.15 145.541562 
L 131.15 33.62 
Q 131.15 31.42 128.95 31.42 
L 43.7 31.42 
Q 41.5 31.42 41.5 33.62 
L 41.5 145.541562 
Q 41.5 147.741563 43.7 147.741563 
z
" style="opacity: 0.8; stroke: #cccccc; stroke-linejoin: miter"/>
    </g>
    <g id="line2d_20">
     <path d="M 45.9 40.328281 
L 56.9 40.328281 
L 67.9 40.328281 
" style="fill: none; stroke: #4c72b0; stroke-width: 1.5; stroke-linecap: round"/>
    </g>
    <g id="text_16">
     <!-- $\alpha$=2.0 -->
     <g style="fill: #ffb000" transform="translate(76.7 44.178281) scale(0.11 -0.11)">
      <defs>
       <path id="DejaVuSans-Oblique-3b1" d="M 2619 1628 
L 2622 2350 
Q 2625 3088 2069 3091 
Q 1653 3094 1394 2747 
Q 1069 2319 959 1747 
Q 825 1059 994 731 
Q 1169 397 1547 397 
Q 1966 397 2319 1063 
L 2619 1628 
z
M 2166 3578 
Q 3141 3594 3128 2584 
Q 3128 2584 3616 3500 
L 4128 3500 
L 3119 1603 
L 3109 919 
Q 3109 766 3194 638 
Q 3291 488 3391 488 
L 3669 488 
L 3575 0 
L 3228 0 
Q 2934 0 2722 263 
Q 2622 394 2619 669 
Q 2416 334 2066 50 
Q 1900 -81 1453 -78 
Q 722 -72 456 397 
Q 184 884 353 1747 
Q 534 2675 1009 3097 
Q 1544 3569 2166 3578 
z
" transform="scale(0.015625)"/>
      </defs>
      <use xlink:href="#DejaVuSans-Oblique-3b1" transform="translate(0 0.78125)"/>
      <use xlink:href="#DejaVuSans-3d" transform="translate(65.917969 0.78125)"/>
      <use xlink:href="#DejaVuSans-32" transform="translate(149.707031 0.78125)"/>
      <use xlink:href="#DejaVuSans-2e" transform="translate(213.330078 0.78125)"/>
      <use xlink:href="#DejaVuSans-30" transform="translate(245.117188 0.78125)"/>
     </g>
    </g>
    <g id="line2d_21">
     <path d="M 45.9 56.474219 
L 56.9 56.474219 
L 67.9 56.474219 
" style="fill: none; stroke: #dd8452; stroke-width: 1.5; stroke-linecap: round"/>
    </g>
    <g id="text_17">
     <!-- $\alpha$=1.5 -->
     <g style="fill: #ffb000" transform="translate(76.7 60.324219) scale(0.11 -0.11)">
      <use xlink:href="#DejaVuSans-Oblique-3b1" transform="translate(0 0.09375)"/>
      <use xlink:href="#DejaVuSans-3d" transform="translate(65.917969 0.09375)"/>
      <use xlink:href="#DejaVuSans-31" transform="translate(149.707031 0.09375)"/>
      <use xlink:href="#DejaVuSans-2e" transform="translate(213.330078 0.09375)"/>
      <use xlink:href="#DejaVuSans-35" transform="translate(245.117188 0.09375)"/>
     </g>
    </g>
    <g id="line2d_22">
     <path d="M 45.9 72.620156 
L 56.9 72.620156 
L 67.9 72.620156 
" style="fill: none; stroke: #55a868; stroke-width: 1.5; stroke-linecap: round"/>
    </g>
    <g id="text_18">
     <!-- $\alpha$=1.0 -->
     <g style="fill: #ffb000" transform="translate(76.7 76.470156) scale(0.11 -0.11)">
      <use xlink:href="#DejaVuSans-Oblique-3b1" transform="translate(0 0.78125)"/>
      <use xlink:href="#DejaVuSans-3d" transform="translate(65.917969 0.78125)"/>
      <use xlink:href="#DejaVuSans-31" transform="translate(149.707031 0.78125)"/>
      <use xlink:href="#DejaVuSans-2e" transform="translate(213.330078 0.78125)"/>
      <use xlink:href="#DejaVuSans-30" transform="translate(245.117188 0.78125)"/>
     </g>
    </g>
    <g id="line2d_23">
     <path d="M 45.9 88.766094 
L 56.9 88.766094 
L 67.9 88.766094 
" style="fill: none; stroke: #c44e52; stroke-width: 1.5; stroke-linecap: round"/>
    </g>
    <g id="text_19">
     <!-- $\alpha$=0.0 -->
     <g style="fill: #ffb000" transform="translate(76.7 92.616094) scale(0.11 -0.11)">
      <use xlink:href="#DejaVuSans-Oblique-3b1" transform="translate(0 0.78125)"/>
      <use xlink:href="#DejaVuSans-3d" transform="translate(65.917969 0.78125)"/>
      <use xlink:href="#DejaVuSans-30" transform="translate(149.707031 0.78125)"/>
      <use xlink:href="#DejaVuSans-2e" transform="translate(213.330078 0.78125)"/>
      <use xlink:href="#DejaVuSans-30" transform="translate(245.117188 0.78125)"/>
     </g>
    </g>
    <g id="line2d_24">
     <path d="M 45.9 104.912031 
L 56.9 104.912031 
L 67.9 104.912031 
" style="fill: none; stroke: #8172b3; stroke-width: 1.5; stroke-linecap: round"/>
    </g>
    <g id="text_20">
     <!-- $\alpha$=-1.0 -->
     <g style="fill: #ffb000" transform="translate(76.7 108.762031) scale(0.11 -0.11)">
      <defs>
       <path id="DejaVuSans-2d" d="M 313 2009 
L 1997 2009 
L 1997 1497 
L 313 1497 
L 313 2009 
z
" transform="scale(0.015625)"/>
      </defs>
      <use xlink:href="#DejaVuSans-Oblique-3b1" transform="translate(0 0.78125)"/>
      <use xlink:href="#DejaVuSans-3d" transform="translate(65.917969 0.78125)"/>
      <use xlink:href="#DejaVuSans-2d" transform="translate(149.707031 0.78125)"/>
      <use xlink:href="#DejaVuSans-31" transform="translate(185.791016 0.78125)"/>
      <use xlink:href="#DejaVuSans-2e" transform="translate(249.414062 0.78125)"/>
      <use xlink:href="#DejaVuSans-30" transform="translate(281.201172 0.78125)"/>
     </g>
    </g>
    <g id="line2d_25">
     <path d="M 45.9 121.057969 
L 56.9 121.057969 
L 67.9 121.057969 
" style="fill: none; stroke: #937860; stroke-width: 1.5; stroke-linecap: round"/>
    </g>
    <g id="text_21">
     <!-- $\alpha$=-2.0 -->
     <g style="fill: #ffb000" transform="translate(76.7 124.907969) scale(0.11 -0.11)">
      <use xlink:href="#DejaVuSans-Oblique-3b1" transform="translate(0 0.78125)"/>
      <use xlink:href="#DejaVuSans-3d" transform="translate(65.917969 0.78125)"/>
      <use xlink:href="#DejaVuSans-2d" transform="translate(149.707031 0.78125)"/>
      <use xlink:href="#DejaVuSans-32" transform="translate(185.791016 0.78125)"/>
      <use xlink:href="#DejaVuSans-2e" transform="translate(249.414062 0.78125)"/>
      <use xlink:href="#DejaVuSans-30" transform="translate(281.201172 0.78125)"/>
     </g>
    </g>
    <g id="line2d_26">
     <path d="M 45.9 137.203906 
L 56.9 137.203906 
L 67.9 137.203906 
" style="fill: none; stroke: #da8bc3; stroke-width: 1.5; stroke-linecap: round"/>
    </g>
    <g id="text_22">
     <!-- $\alpha=-\inf$ -->
     <g style="fill: #ffb000" transform="translate(76.7 141.053906) scale(0.11 -0.11)">
      <use xlink:href="#DejaVuSans-Oblique-3b1" transform="translate(0 0.015625)"/>
      <use xlink:href="#DejaVuSans-3d" transform="translate(85.400391 0.015625)"/>
      <use xlink:href="#DejaVuSans-2212" transform="translate(208.154297 0.015625)"/>
      <use xlink:href="#DejaVuSans-69" transform="translate(311.425781 0.015625)"/>
      <use xlink:href="#DejaVuSans-6e" transform="translate(339.208984 0.015625)"/>
      <use xlink:href="#DejaVuSans-66" transform="translate(402.587891 0.015625)"/>
     </g>
    </g>
   </g>
  </g>
 </g>
 <defs>
  <clipPath id="p90659fab91">
   <rect x="36" y="25.92" width="223.2" height="166.32"/>
  </clipPath>
 </defs>
</svg>
