<?xml version="1.0" encoding="utf-8" standalone="no"?>
<!DOCTYPE svg PUBLIC "-//W3C//DTD SVG 1.1//EN"
  "http://www.w3.org/Graphics/SVG/1.1/DTD/svg11.dtd">
<svg xmlns:xlink="http://www.w3.org/1999/xlink" width="460.8pt" height="345.6pt" viewBox="0 0 460.8 345.6" xmlns="http://www.w3.org/2000/svg" version="1.1">
 <metadata>
  <rdf:RDF xmlns:dc="http://purl.org/dc/elements/1.1/" xmlns:cc="http://creativecommons.org/ns#" xmlns:rdf="http://www.w3.org/1999/02/22-rdf-syntax-ns#">
   <cc:Work>
    <dc:type rdf:resource="http://purl.org/dc/dcmitype/StillImage"/>
    <dc:date>2024-02-11T14:55:09.725662</dc:date>
    <dc:format>image/svg+xml</dc:format>
    <dc:creator>
     <cc:Agent>
      <dc:title>Matplotlib v3.7.2, https://matplotlib.org/</dc:title>
     </cc:Agent>
    </dc:creator>
   </cc:Work>
  </rdf:RDF>
 </metadata>
 <defs>
  <style type="text/css">*{stroke-linejoin: round; stroke-linecap: butt}</style>
 </defs>
 <g id="figure_1">
  <g id="patch_1">
   <path d="M 0 345.6 
L 460.8 345.6 
L 460.8 0 
L 0 0 
L 0 345.6 
z
" style="fill: none"/>
  </g>
  <g id="axes_1">
   <g id="patch_2">
    <path d="M 13.951488 141.731461 
L 225 141.731461 
L 225 26.88 
L 13.951488 26.88 
L 13.951488 141.731461 
z
" style="fill: none"/>
   </g>
   <g id="matplotlib.axis_1">
    <g id="xtick_1">
     <g id="line2d_1">
      <defs>
       <path id="m8080e59227" d="M 0 0 
L 0 3.5 
" style="stroke: #ffb000; stroke-width: 0.8"/>
      </defs>
      <g>
       <use xlink:href="#m8080e59227" x="23.544602" y="136.510948" style="fill: #ffb000; stroke: #ffb000; stroke-width: 0.8"/>
      </g>
     </g>
     <g id="text_1">
      <!-- −10 -->
      <g style="fill: #ffb000" transform="translate(12.992258 151.109386) scale(0.1 -0.1)">
       <defs>
        <path id="DejaVuSans-2212" d="M 678 2272 
L 4684 2272 
L 4684 1741 
L 678 1741 
L 678 2272 
z
" transform="scale(0.015625)"/>
        <path id="DejaVuSans-31" d="M 794 531 
L 1825 531 
L 1825 4091 
L 703 3866 
L 703 4441 
L 1819 4666 
L 2450 4666 
L 2450 531 
L 3481 531 
L 3481 0 
L 794 0 
L 794 531 
z
" transform="scale(0.015625)"/>
        <path id="DejaVuSans-30" d="M 2034 4250 
Q 1547 4250 1301 3770 
Q 1056 3291 1056 2328 
Q 1056 1369 1301 889 
Q 1547 409 2034 409 
Q 2525 409 2770 889 
Q 3016 1369 3016 2328 
Q 3016 3291 2770 3770 
Q 2525 4250 2034 4250 
z
M 2034 4750 
Q 2819 4750 3233 4129 
Q 3647 3509 3647 2328 
Q 3647 1150 3233 529 
Q 2819 -91 2034 -91 
Q 1250 -91 836 529 
Q 422 1150 422 2328 
Q 422 3509 836 4129 
Q 1250 4750 2034 4750 
z
" transform="scale(0.015625)"/>
       </defs>
       <use xlink:href="#DejaVuSans-2212"/>
       <use xlink:href="#DejaVuSans-31" x="83.789062"/>
       <use xlink:href="#DejaVuSans-30" x="147.412109"/>
      </g>
     </g>
    </g>
    <g id="xtick_2">
     <g id="line2d_2">
      <g>
       <use xlink:href="#m8080e59227" x="71.510173" y="136.510948" style="fill: #ffb000; stroke: #ffb000; stroke-width: 0.8"/>
      </g>
     </g>
     <g id="text_2">
      <!-- −5 -->
      <g style="fill: #ffb000" transform="translate(64.139079 151.109386) scale(0.1 -0.1)">
       <defs>
        <path id="DejaVuSans-35" d="M 691 4666 
L 3169 4666 
L 3169 4134 
L 1269 4134 
L 1269 2991 
Q 1406 3038 1543 3061 
Q 1681 3084 1819 3084 
Q 2600 3084 3056 2656 
Q 3513 2228 3513 1497 
Q 3513 744 3044 326 
Q 2575 -91 1722 -91 
Q 1428 -91 1123 -41 
Q 819 9 494 109 
L 494 744 
Q 775 591 1075 516 
Q 1375 441 1709 441 
Q 2250 441 2565 725 
Q 2881 1009 2881 1497 
Q 2881 1984 2565 2268 
Q 2250 2553 1709 2553 
Q 1456 2553 1204 2497 
Q 953 2441 691 2322 
L 691 4666 
z
" transform="scale(0.015625)"/>
       </defs>
       <use xlink:href="#DejaVuSans-2212"/>
       <use xlink:href="#DejaVuSans-35" x="83.789062"/>
      </g>
     </g>
    </g>
    <g id="xtick_3">
     <g id="line2d_3">
      <g>
       <use xlink:href="#m8080e59227" x="119.475744" y="136.510948" style="fill: #ffb000; stroke: #ffb000; stroke-width: 0.8"/>
      </g>
     </g>
     <g id="text_3">
      <!-- 0 -->
      <g style="fill: #ffb000" transform="translate(116.294494 151.109386) scale(0.1 -0.1)">
       <use xlink:href="#DejaVuSans-30"/>
      </g>
     </g>
    </g>
    <g id="xtick_4">
     <g id="line2d_4">
      <g>
       <use xlink:href="#m8080e59227" x="167.441315" y="136.510948" style="fill: #ffb000; stroke: #ffb000; stroke-width: 0.8"/>
      </g>
     </g>
     <g id="text_4">
      <!-- 5 -->
      <g style="fill: #ffb000" transform="translate(164.260065 151.109386) scale(0.1 -0.1)">
       <use xlink:href="#DejaVuSans-35"/>
      </g>
     </g>
    </g>
    <g id="xtick_5">
     <g id="line2d_5">
      <g>
       <use xlink:href="#m8080e59227" x="215.406886" y="136.510948" style="fill: #ffb000; stroke: #ffb000; stroke-width: 0.8"/>
      </g>
     </g>
     <g id="text_5">
      <!-- 10 -->
      <g style="fill: #ffb000" transform="translate(209.044386 151.109386) scale(0.1 -0.1)">
       <use xlink:href="#DejaVuSans-31"/>
       <use xlink:href="#DejaVuSans-30" x="63.623047"/>
      </g>
     </g>
    </g>
    <g id="text_6">
     <!-- $x$ -->
     <g style="fill: #ffb000" transform="translate(116.475744 164.787511) scale(0.1 -0.1)">
      <defs>
       <path id="DejaVuSans-Oblique-78" d="M 3841 3500 
L 2234 1784 
L 3219 0 
L 2559 0 
L 1819 1388 
L 531 0 
L -166 0 
L 1556 1844 
L 641 3500 
L 1300 3500 
L 1972 2234 
L 3144 3500 
L 3841 3500 
z
" transform="scale(0.015625)"/>
      </defs>
      <use xlink:href="#DejaVuSans-Oblique-78" transform="translate(0 0.3125)"/>
     </g>
    </g>
   </g>
   <g id="matplotlib.axis_2">
    <g id="ytick_1">
     <g id="line2d_6">
      <defs>
       <path id="m0b78bdc136" d="M 0 0 
L -3.5 0 
" style="stroke: #ffb000; stroke-width: 0.8"/>
      </defs>
      <g>
       <use xlink:href="#m0b78bdc136" x="119.475744" y="136.510948" style="fill: #ffb000; stroke: #ffb000; stroke-width: 0.8"/>
      </g>
     </g>
     <g id="text_7">
      <!-- 0 -->
      <g style="fill: #ffb000" transform="translate(106.113244 140.310167) scale(0.1 -0.1)">
       <use xlink:href="#DejaVuSans-30"/>
      </g>
     </g>
    </g>
    <g id="ytick_2">
     <g id="line2d_7">
      <g>
       <use xlink:href="#m0b78bdc136" x="119.475744" y="94.746777" style="fill: #ffb000; stroke: #ffb000; stroke-width: 0.8"/>
      </g>
     </g>
     <g id="text_8">
      <!-- 20 -->
      <g style="fill: #ffb000" transform="translate(99.750744 98.545996) scale(0.1 -0.1)">
       <defs>
        <path id="DejaVuSans-32" d="M 1228 531 
L 3431 531 
L 3431 0 
L 469 0 
L 469 531 
Q 828 903 1448 1529 
Q 2069 2156 2228 2338 
Q 2531 2678 2651 2914 
Q 2772 3150 2772 3378 
Q 2772 3750 2511 3984 
Q 2250 4219 1831 4219 
Q 1534 4219 1204 4116 
Q 875 4013 500 3803 
L 500 4441 
Q 881 4594 1212 4672 
Q 1544 4750 1819 4750 
Q 2544 4750 2975 4387 
Q 3406 4025 3406 3419 
Q 3406 3131 3298 2873 
Q 3191 2616 2906 2266 
Q 2828 2175 2409 1742 
Q 1991 1309 1228 531 
z
" transform="scale(0.015625)"/>
       </defs>
       <use xlink:href="#DejaVuSans-32"/>
       <use xlink:href="#DejaVuSans-30" x="63.623047"/>
      </g>
     </g>
    </g>
    <g id="ytick_3">
     <g id="line2d_8">
      <g>
       <use xlink:href="#m0b78bdc136" x="119.475744" y="52.982606" style="fill: #ffb000; stroke: #ffb000; stroke-width: 0.8"/>
      </g>
     </g>
     <g id="text_9">
      <!-- 40 -->
      <g style="fill: #ffb000" transform="translate(99.750744 56.781825) scale(0.1 -0.1)">
       <defs>
        <path id="DejaVuSans-34" d="M 2419 4116 
L 825 1625 
L 2419 1625 
L 2419 4116 
z
M 2253 4666 
L 3047 4666 
L 3047 1625 
L 3713 1625 
L 3713 1100 
L 3047 1100 
L 3047 0 
L 2419 0 
L 2419 1100 
L 313 1100 
L 313 1709 
L 2253 4666 
z
" transform="scale(0.015625)"/>
       </defs>
       <use xlink:href="#DejaVuSans-34"/>
       <use xlink:href="#DejaVuSans-30" x="63.623047"/>
      </g>
     </g>
    </g>
    <g id="text_10">
     <!-- $f{\left(x \right)}$ -->
     <g style="fill: #ffb000" transform="translate(93.671056 92.955731) rotate(-90) scale(0.1 -0.1)">
      <defs>
       <path id="DejaVuSans-Oblique-66" d="M 3059 4863 
L 2969 4384 
L 2419 4384 
Q 2106 4384 1964 4261 
Q 1822 4138 1753 3809 
L 1691 3500 
L 2638 3500 
L 2553 3053 
L 1606 3053 
L 1013 0 
L 434 0 
L 1031 3053 
L 481 3053 
L 563 3500 
L 1113 3500 
L 1159 3744 
Q 1278 4363 1576 4613 
Q 1875 4863 2516 4863 
L 3059 4863 
z
" transform="scale(0.015625)"/>
       <path id="DejaVuSans-28" d="M 1984 4856 
Q 1566 4138 1362 3434 
Q 1159 2731 1159 2009 
Q 1159 1288 1364 580 
Q 1569 -128 1984 -844 
L 1484 -844 
Q 1016 -109 783 600 
Q 550 1309 550 2009 
Q 550 2706 781 3412 
Q 1013 4119 1484 4856 
L 1984 4856 
z
" transform="scale(0.015625)"/>
       <path id="DejaVuSans-29" d="M 513 4856 
L 1013 4856 
Q 1481 4119 1714 3412 
Q 1947 2706 1947 2009 
Q 1947 1309 1714 600 
Q 1481 -109 1013 -844 
L 513 -844 
Q 928 -128 1133 580 
Q 1338 1288 1338 2009 
Q 1338 2731 1133 3434 
Q 928 4138 513 4856 
z
" transform="scale(0.015625)"/>
      </defs>
      <use xlink:href="#DejaVuSans-Oblique-66" transform="translate(0 0.015625)"/>
      <use xlink:href="#DejaVuSans-28" transform="translate(35.205078 0.015625)"/>
      <use xlink:href="#DejaVuSans-Oblique-78" transform="translate(74.21875 0.015625)"/>
      <use xlink:href="#DejaVuSans-29" transform="translate(133.398438 0.015625)"/>
     </g>
    </g>
   </g>
   <g id="line2d_9">
    <path d="M 23.544602 32.100521 
L 25.702951 36.745916 
L 28.246859 42.085431 
L 30.927671 47.553386 
L 33.683287 53.003954 
L 36.358222 58.130125 
L 39.228169 63.449467 
L 42.628416 69.50981 
L 45.555935 74.517426 
L 48.135278 78.768323 
L 51.195414 83.615796 
L 54.462713 88.556879 
L 57.555484 93.010855 
L 60.463055 97.000182 
L 63.593749 101.081169 
L 66.675456 104.881092 
L 69.468035 108.138385 
L 71.517548 110.416368 
L 74.020345 113.068898 
L 76.281523 115.343138 
L 78.619804 117.572907 
L 81.049159 119.758117 
L 83.1362 121.528472 
L 85.643067 123.524291 
L 88.301944 125.4853 
L 90.463116 126.961049 
L 92.824698 128.452468 
L 95.562923 130.023315 
L 98.311137 131.428827 
L 101.336717 132.777995 
L 102.957857 133.415428 
L 104.825417 134.075834 
L 106.10586 134.482892 
L 107.644146 134.922725 
L 108.844684 135.228683 
L 110.311642 135.558142 
L 111.65356 135.816755 
L 112.423363 135.946666 
L 113.058715 136.043759 
L 113.741312 136.137865 
L 114.564733 136.237317 
L 115.400009 136.322481 
L 116.247349 136.392699 
L 116.996916 136.441235 
L 117.766214 136.477791 
L 118.564736 136.501532 
L 118.992554 136.508299 
L 119.502305 136.51094 
L 120.297204 136.503292 
L 121.167978 136.478459 
L 121.965585 136.440614 
L 122.478953 136.40862 
L 122.939296 136.374845 
L 123.866774 136.292193 
L 124.654563 136.206659 
L 125.527253 136.095466 
L 126.299464 135.982665 
L 127.196128 135.834706 
L 128.017972 135.683069 
L 128.915065 135.500053 
L 129.782833 135.305644 
L 131.235899 134.941848 
L 132.656445 134.53988 
L 134.484387 133.955262 
L 136.003147 133.41186 
L 139.300796 132.051785 
L 142.081759 130.713022 
L 144.76483 129.255055 
L 147.934775 127.32202 
L 150.907458 125.302106 
L 153.458392 123.408904 
L 156.069868 121.317814 
L 158.759714 119.002188 
L 162.475649 115.533163 
L 166.172145 111.771417 
L 170.48153 106.994538 
L 174.352336 102.344572 
L 177.293519 98.584044 
L 180.401881 94.396421 
L 183.808539 89.555122 
L 187.123085 84.591974 
L 190.86716 78.685816 
L 194.358714 72.891373 
L 197.883108 66.761889 
L 201.258038 60.62817 
L 205.186719 53.1625 
L 208.486146 46.622026 
L 212.074173 39.229085 
L 215.406886 32.100521 
" clip-path="url(#pa4ed28dd3c)" style="fill: none; stroke: #1f77b4; stroke-width: 1.5; stroke-linecap: square"/>
   </g>
   <g id="patch_3">
    <path d="M 119.475744 141.731461 
L 119.475744 26.88 
" style="fill: none; stroke: #000000; stroke-width: 0.8; stroke-linejoin: miter; stroke-linecap: square"/>
   </g>
   <g id="patch_4">
    <path d="M 225 141.731461 
L 225 26.88 
" style="fill: none"/>
   </g>
   <g id="patch_5">
    <path d="M 13.951488 136.510948 
L 225 136.510948 
" style="fill: none; stroke: #000000; stroke-width: 0.8; stroke-linejoin: miter; stroke-linecap: square"/>
   </g>
   <g id="patch_6">
    <path d="M 13.951488 26.88 
L 225 26.88 
" style="fill: none"/>
   </g>
   <g id="text_11">
    <!-- LMS -->
    <g style="fill: #ffb000" transform="translate(107.146681 20.88) scale(0.12 -0.12)">
     <defs>
      <path id="DejaVuSans-4c" d="M 628 4666 
L 1259 4666 
L 1259 531 
L 3531 531 
L 3531 0 
L 628 0 
L 628 4666 
z
" transform="scale(0.015625)"/>
      <path id="DejaVuSans-4d" d="M 628 4666 
L 1569 4666 
L 2759 1491 
L 3956 4666 
L 4897 4666 
L 4897 0 
L 4281 0 
L 4281 4097 
L 3078 897 
L 2444 897 
L 1241 4097 
L 1241 0 
L 628 0 
L 628 4666 
z
" transform="scale(0.015625)"/>
      <path id="DejaVuSans-53" d="M 3425 4513 
L 3425 3897 
Q 3066 4069 2747 4153 
Q 2428 4238 2131 4238 
Q 1616 4238 1336 4038 
Q 1056 3838 1056 3469 
Q 1056 3159 1242 3001 
Q 1428 2844 1947 2747 
L 2328 2669 
Q 3034 2534 3370 2195 
Q 3706 1856 3706 1288 
Q 3706 609 3251 259 
Q 2797 -91 1919 -91 
Q 1588 -91 1214 -16 
Q 841 59 441 206 
L 441 856 
Q 825 641 1194 531 
Q 1563 422 1919 422 
Q 2459 422 2753 634 
Q 3047 847 3047 1241 
Q 3047 1584 2836 1778 
Q 2625 1972 2144 2069 
L 1759 2144 
Q 1053 2284 737 2584 
Q 422 2884 422 3419 
Q 422 4038 858 4394 
Q 1294 4750 2059 4750 
Q 2388 4750 2728 4690 
Q 3069 4631 3425 4513 
z
" transform="scale(0.015625)"/>
     </defs>
     <use xlink:href="#DejaVuSans-4c"/>
     <use xlink:href="#DejaVuSans-4d" x="55.712891"/>
     <use xlink:href="#DejaVuSans-53" x="141.992188"/>
    </g>
   </g>
  </g>
  <g id="axes_2">
   <g id="patch_7">
    <path d="M 238.951488 141.731461 
L 450 141.731461 
L 450 26.88 
L 238.951488 26.88 
L 238.951488 141.731461 
z
" style="fill: none"/>
   </g>
   <g id="matplotlib.axis_3">
    <g id="xtick_6">
     <g id="line2d_10">
      <g>
       <use xlink:href="#m8080e59227" x="248.544602" y="84.305731" style="fill: #ffb000; stroke: #ffb000; stroke-width: 0.8"/>
      </g>
     </g>
     <g id="text_12">
      <!-- −10 -->
      <g style="fill: #ffb000" transform="translate(237.992258 98.904168) scale(0.1 -0.1)">
       <use xlink:href="#DejaVuSans-2212"/>
       <use xlink:href="#DejaVuSans-31" x="83.789062"/>
       <use xlink:href="#DejaVuSans-30" x="147.412109"/>
      </g>
     </g>
    </g>
    <g id="xtick_7">
     <g id="line2d_11">
      <g>
       <use xlink:href="#m8080e59227" x="296.510173" y="84.305731" style="fill: #ffb000; stroke: #ffb000; stroke-width: 0.8"/>
      </g>
     </g>
     <g id="text_13">
      <!-- −5 -->
      <g style="fill: #ffb000" transform="translate(289.139079 98.904168) scale(0.1 -0.1)">
       <use xlink:href="#DejaVuSans-2212"/>
       <use xlink:href="#DejaVuSans-35" x="83.789062"/>
      </g>
     </g>
    </g>
    <g id="xtick_8">
     <g id="line2d_12">
      <g>
       <use xlink:href="#m8080e59227" x="344.475744" y="84.305731" style="fill: #ffb000; stroke: #ffb000; stroke-width: 0.8"/>
      </g>
     </g>
     <g id="text_14">
      <!-- 0 -->
      <g style="fill: #ffb000" transform="translate(341.294494 98.904168) scale(0.1 -0.1)">
       <use xlink:href="#DejaVuSans-30"/>
      </g>
     </g>
    </g>
    <g id="xtick_9">
     <g id="line2d_13">
      <g>
       <use xlink:href="#m8080e59227" x="392.441315" y="84.305731" style="fill: #ffb000; stroke: #ffb000; stroke-width: 0.8"/>
      </g>
     </g>
     <g id="text_15">
      <!-- 5 -->
      <g style="fill: #ffb000" transform="translate(389.260065 98.904168) scale(0.1 -0.1)">
       <use xlink:href="#DejaVuSans-35"/>
      </g>
     </g>
    </g>
    <g id="xtick_10">
     <g id="line2d_14">
      <g>
       <use xlink:href="#m8080e59227" x="440.406886" y="84.305731" style="fill: #ffb000; stroke: #ffb000; stroke-width: 0.8"/>
      </g>
     </g>
     <g id="text_16">
      <!-- 10 -->
      <g style="fill: #ffb000" transform="translate(434.044386 98.904168) scale(0.1 -0.1)">
       <use xlink:href="#DejaVuSans-31"/>
       <use xlink:href="#DejaVuSans-30" x="63.623047"/>
      </g>
     </g>
    </g>
    <g id="text_17">
     <!-- $x$ -->
     <g style="fill: #ffb000" transform="translate(341.475744 112.582293) scale(0.1 -0.1)">
      <use xlink:href="#DejaVuSans-Oblique-78" transform="translate(0 0.3125)"/>
     </g>
    </g>
   </g>
   <g id="matplotlib.axis_4">
    <g id="ytick_4">
     <g id="line2d_15">
      <g>
       <use xlink:href="#m0b78bdc136" x="344.475744" y="136.51094" style="fill: #ffb000; stroke: #ffb000; stroke-width: 0.8"/>
      </g>
     </g>
     <g id="text_18">
      <!-- −10 -->
      <g style="fill: #ffb000" transform="translate(316.371056 140.310159) scale(0.1 -0.1)">
       <use xlink:href="#DejaVuSans-2212"/>
       <use xlink:href="#DejaVuSans-31" x="83.789062"/>
       <use xlink:href="#DejaVuSans-30" x="147.412109"/>
      </g>
     </g>
    </g>
    <g id="ytick_5">
     <g id="line2d_16">
      <g>
       <use xlink:href="#m0b78bdc136" x="344.475744" y="110.408335" style="fill: #ffb000; stroke: #ffb000; stroke-width: 0.8"/>
      </g>
     </g>
     <g id="text_19">
      <!-- −5 -->
      <g style="fill: #ffb000" transform="translate(322.733556 114.207554) scale(0.1 -0.1)">
       <use xlink:href="#DejaVuSans-2212"/>
       <use xlink:href="#DejaVuSans-35" x="83.789062"/>
      </g>
     </g>
    </g>
    <g id="ytick_6">
     <g id="line2d_17">
      <g>
       <use xlink:href="#m0b78bdc136" x="344.475744" y="84.305731" style="fill: #ffb000; stroke: #ffb000; stroke-width: 0.8"/>
      </g>
     </g>
     <g id="text_20">
      <!-- 0 -->
      <g style="fill: #ffb000" transform="translate(331.113244 88.104949) scale(0.1 -0.1)">
       <use xlink:href="#DejaVuSans-30"/>
      </g>
     </g>
    </g>
    <g id="ytick_7">
     <g id="line2d_18">
      <g>
       <use xlink:href="#m0b78bdc136" x="344.475744" y="58.203126" style="fill: #ffb000; stroke: #ffb000; stroke-width: 0.8"/>
      </g>
     </g>
     <g id="text_21">
      <!-- 5 -->
      <g style="fill: #ffb000" transform="translate(331.113244 62.002345) scale(0.1 -0.1)">
       <use xlink:href="#DejaVuSans-35"/>
      </g>
     </g>
    </g>
    <g id="ytick_8">
     <g id="line2d_19">
      <g>
       <use xlink:href="#m0b78bdc136" x="344.475744" y="32.100521" style="fill: #ffb000; stroke: #ffb000; stroke-width: 0.8"/>
      </g>
     </g>
     <g id="text_22">
      <!-- 10 -->
      <g style="fill: #ffb000" transform="translate(324.750744 35.89974) scale(0.1 -0.1)">
       <use xlink:href="#DejaVuSans-31"/>
       <use xlink:href="#DejaVuSans-30" x="63.623047"/>
      </g>
     </g>
    </g>
    <g id="text_23">
     <!-- $f{\left(x \right)}$ -->
     <g style="fill: #ffb000" transform="translate(310.291369 92.955731) rotate(-90) scale(0.1 -0.1)">
      <use xlink:href="#DejaVuSans-Oblique-66" transform="translate(0 0.015625)"/>
      <use xlink:href="#DejaVuSans-28" transform="translate(35.205078 0.015625)"/>
      <use xlink:href="#DejaVuSans-Oblique-78" transform="translate(74.21875 0.015625)"/>
      <use xlink:href="#DejaVuSans-29" transform="translate(133.398438 0.015625)"/>
     </g>
    </g>
   </g>
   <g id="line2d_20">
    <path d="M 248.544602 136.51094 
L 251.78876 134.745487 
L 255.230981 132.872249 
L 258.691692 130.988949 
L 261.983252 129.197699 
L 264.752218 127.690843 
L 267.366637 126.26809 
L 270.757766 124.422656 
L 273.699259 122.821911 
L 276.002099 121.568719 
L 278.663323 120.120495 
L 281.656327 118.491718 
L 284.278613 117.064684 
L 286.981582 115.593743 
L 290.201263 113.84161 
L 293.455234 112.070817 
L 296.633851 110.34103 
L 299.20485 108.941907 
L 301.441591 107.724684 
L 303.794532 106.444226 
L 306.272445 105.095759 
L 309.009544 103.606245 
L 311.45653 102.274609 
L 314.549463 100.591451 
L 317.485146 98.993868 
L 320.746197 97.219222 
L 323.818287 95.547407 
L 327.028419 93.80047 
L 329.667038 92.364548 
L 332.768463 90.67677 
L 336.057939 88.886655 
L 338.720217 87.437857 
L 341.412933 85.972496 
L 344.774919 84.142921 
L 348.761235 81.97359 
L 352.067239 80.17448 
L 354.798027 78.6884 
L 358.109608 76.886255 
L 361.148073 75.232739 
L 363.681822 73.853887 
L 366.369214 72.391422 
L 369.094571 70.908298 
L 371.416093 69.644938 
L 374.316042 68.066801 
L 376.864998 66.679673 
L 379.437872 65.279529 
L 382.084111 63.83946 
L 384.834746 62.342579 
L 387.7673 60.746699 
L 391.042001 58.964625 
L 394.427275 57.122377 
L 398.320781 55.003552 
L 402.514511 52.721347 
L 405.667298 51.005617 
L 409.012635 49.185103 
L 412.664936 47.19754 
L 416.497785 45.111724 
L 419.734051 43.350566 
L 422.458192 41.868103 
L 426.029393 39.924675 
L 429.348116 38.118644 
L 431.765811 36.802947 
L 434.51161 35.308698 
L 437.195983 33.847877 
L 440.406886 32.100521 
" clip-path="url(#pee2121ab02)" style="fill: none; stroke: #1f77b4; stroke-width: 1.5; stroke-linecap: square"/>
   </g>
   <g id="patch_8">
    <path d="M 344.475744 141.731461 
L 344.475744 26.88 
" style="fill: none; stroke: #000000; stroke-width: 0.8; stroke-linejoin: miter; stroke-linecap: square"/>
   </g>
   <g id="patch_9">
    <path d="M 450 141.731461 
L 450 26.88 
" style="fill: none"/>
   </g>
   <g id="patch_10">
    <path d="M 238.951488 84.305731 
L 450 84.305731 
" style="fill: none; stroke: #000000; stroke-width: 0.8; stroke-linejoin: miter; stroke-linecap: square"/>
   </g>
   <g id="patch_11">
    <path d="M 238.951488 26.88 
L 450 26.88 
" style="fill: none"/>
   </g>
   <g id="text_24">
    <!-- Diff(LMS) -->
    <g style="fill: #ffb000" transform="translate(316.953556 20.88) scale(0.12 -0.12)">
     <defs>
      <path id="DejaVuSans-44" d="M 1259 4147 
L 1259 519 
L 2022 519 
Q 2988 519 3436 956 
Q 3884 1394 3884 2338 
Q 3884 3275 3436 3711 
Q 2988 4147 2022 4147 
L 1259 4147 
z
M 628 4666 
L 1925 4666 
Q 3281 4666 3915 4102 
Q 4550 3538 4550 2338 
Q 4550 1131 3912 565 
Q 3275 0 1925 0 
L 628 0 
L 628 4666 
z
" transform="scale(0.015625)"/>
      <path id="DejaVuSans-69" d="M 603 3500 
L 1178 3500 
L 1178 0 
L 603 0 
L 603 3500 
z
M 603 4863 
L 1178 4863 
L 1178 4134 
L 603 4134 
L 603 4863 
z
" transform="scale(0.015625)"/>
      <path id="DejaVuSans-66" d="M 2375 4863 
L 2375 4384 
L 1825 4384 
Q 1516 4384 1395 4259 
Q 1275 4134 1275 3809 
L 1275 3500 
L 2222 3500 
L 2222 3053 
L 1275 3053 
L 1275 0 
L 697 0 
L 697 3053 
L 147 3053 
L 147 3500 
L 697 3500 
L 697 3744 
Q 697 4328 969 4595 
Q 1241 4863 1831 4863 
L 2375 4863 
z
" transform="scale(0.015625)"/>
     </defs>
     <use xlink:href="#DejaVuSans-44"/>
     <use xlink:href="#DejaVuSans-69" x="77.001953"/>
     <use xlink:href="#DejaVuSans-66" x="104.785156"/>
     <use xlink:href="#DejaVuSans-66" x="139.990234"/>
     <use xlink:href="#DejaVuSans-28" x="175.195312"/>
     <use xlink:href="#DejaVuSans-4c" x="214.208984"/>
     <use xlink:href="#DejaVuSans-4d" x="269.921875"/>
     <use xlink:href="#DejaVuSans-53" x="356.201172"/>
     <use xlink:href="#DejaVuSans-29" x="419.677734"/>
    </g>
   </g>
  </g>
  <g id="axes_3">
   <g id="patch_12">
    <path d="M 13.951488 309.124749 
L 225 309.124749 
L 225 194.273288 
L 13.951488 194.273288 
L 13.951488 309.124749 
z
" style="fill: none"/>
   </g>
   <g id="matplotlib.axis_5">
    <g id="xtick_11">
     <g id="line2d_21">
      <g>
       <use xlink:href="#m8080e59227" x="23.544602" y="303.916982" style="fill: #ffb000; stroke: #ffb000; stroke-width: 0.8"/>
      </g>
     </g>
     <g id="text_25">
      <!-- −10 -->
      <g style="fill: #ffb000" transform="translate(12.992258 318.51542) scale(0.1 -0.1)">
       <use xlink:href="#DejaVuSans-2212"/>
       <use xlink:href="#DejaVuSans-31" x="83.789062"/>
       <use xlink:href="#DejaVuSans-30" x="147.412109"/>
      </g>
     </g>
    </g>
    <g id="xtick_12">
     <g id="line2d_22">
      <g>
       <use xlink:href="#m8080e59227" x="71.510173" y="303.916982" style="fill: #ffb000; stroke: #ffb000; stroke-width: 0.8"/>
      </g>
     </g>
     <g id="text_26">
      <!-- −5 -->
      <g style="fill: #ffb000" transform="translate(64.139079 318.51542) scale(0.1 -0.1)">
       <use xlink:href="#DejaVuSans-2212"/>
       <use xlink:href="#DejaVuSans-35" x="83.789062"/>
      </g>
     </g>
    </g>
    <g id="xtick_13">
     <g id="line2d_23">
      <g>
       <use xlink:href="#m8080e59227" x="119.475744" y="303.916982" style="fill: #ffb000; stroke: #ffb000; stroke-width: 0.8"/>
      </g>
     </g>
     <g id="text_27">
      <!-- 0 -->
      <g style="fill: #ffb000" transform="translate(116.294494 318.51542) scale(0.1 -0.1)">
       <use xlink:href="#DejaVuSans-30"/>
      </g>
     </g>
    </g>
    <g id="xtick_14">
     <g id="line2d_24">
      <g>
       <use xlink:href="#m8080e59227" x="167.441315" y="303.916982" style="fill: #ffb000; stroke: #ffb000; stroke-width: 0.8"/>
      </g>
     </g>
     <g id="text_28">
      <!-- 5 -->
      <g style="fill: #ffb000" transform="translate(164.260065 318.51542) scale(0.1 -0.1)">
       <use xlink:href="#DejaVuSans-35"/>
      </g>
     </g>
    </g>
    <g id="xtick_15">
     <g id="line2d_25">
      <g>
       <use xlink:href="#m8080e59227" x="215.406886" y="303.916982" style="fill: #ffb000; stroke: #ffb000; stroke-width: 0.8"/>
      </g>
     </g>
     <g id="text_29">
      <!-- 10 -->
      <g style="fill: #ffb000" transform="translate(209.044386 318.51542) scale(0.1 -0.1)">
       <use xlink:href="#DejaVuSans-31"/>
       <use xlink:href="#DejaVuSans-30" x="63.623047"/>
      </g>
     </g>
    </g>
    <g id="text_30">
     <!-- $x$ -->
     <g style="fill: #ffb000" transform="translate(116.475744 332.193545) scale(0.1 -0.1)">
      <use xlink:href="#DejaVuSans-Oblique-78" transform="translate(0 0.3125)"/>
     </g>
    </g>
   </g>
   <g id="matplotlib.axis_6">
    <g id="ytick_9">
     <g id="line2d_26">
      <g>
       <use xlink:href="#m0b78bdc136" x="119.475744" y="303.916982" style="fill: #ffb000; stroke: #ffb000; stroke-width: 0.8"/>
      </g>
     </g>
     <g id="text_31">
      <!-- 0.00 -->
      <g style="fill: #ffb000" transform="translate(90.210119 307.716201) scale(0.1 -0.1)">
       <defs>
        <path id="DejaVuSans-2e" d="M 684 794 
L 1344 794 
L 1344 0 
L 684 0 
L 684 794 
z
" transform="scale(0.015625)"/>
       </defs>
       <use xlink:href="#DejaVuSans-30"/>
       <use xlink:href="#DejaVuSans-2e" x="63.623047"/>
       <use xlink:href="#DejaVuSans-30" x="95.410156"/>
       <use xlink:href="#DejaVuSans-30" x="159.033203"/>
      </g>
     </g>
    </g>
    <g id="ytick_10">
     <g id="line2d_27">
      <g>
       <use xlink:href="#m0b78bdc136" x="119.475744" y="277.811092" style="fill: #ffb000; stroke: #ffb000; stroke-width: 0.8"/>
      </g>
     </g>
     <g id="text_32">
      <!-- 0.25 -->
      <g style="fill: #ffb000" transform="translate(90.210119 281.610311) scale(0.1 -0.1)">
       <use xlink:href="#DejaVuSans-30"/>
       <use xlink:href="#DejaVuSans-2e" x="63.623047"/>
       <use xlink:href="#DejaVuSans-32" x="95.410156"/>
       <use xlink:href="#DejaVuSans-35" x="159.033203"/>
      </g>
     </g>
    </g>
    <g id="ytick_11">
     <g id="line2d_28">
      <g>
       <use xlink:href="#m0b78bdc136" x="119.475744" y="251.705201" style="fill: #ffb000; stroke: #ffb000; stroke-width: 0.8"/>
      </g>
     </g>
     <g id="text_33">
      <!-- 0.50 -->
      <g style="fill: #ffb000" transform="translate(90.210119 255.50442) scale(0.1 -0.1)">
       <use xlink:href="#DejaVuSans-30"/>
       <use xlink:href="#DejaVuSans-2e" x="63.623047"/>
       <use xlink:href="#DejaVuSans-35" x="95.410156"/>
       <use xlink:href="#DejaVuSans-30" x="159.033203"/>
      </g>
     </g>
    </g>
    <g id="ytick_12">
     <g id="line2d_29">
      <g>
       <use xlink:href="#m0b78bdc136" x="119.475744" y="225.59931" style="fill: #ffb000; stroke: #ffb000; stroke-width: 0.8"/>
      </g>
     </g>
     <g id="text_34">
      <!-- 0.75 -->
      <g style="fill: #ffb000" transform="translate(90.210119 229.398529) scale(0.1 -0.1)">
       <defs>
        <path id="DejaVuSans-37" d="M 525 4666 
L 3525 4666 
L 3525 4397 
L 1831 0 
L 1172 0 
L 2766 4134 
L 525 4134 
L 525 4666 
z
" transform="scale(0.015625)"/>
       </defs>
       <use xlink:href="#DejaVuSans-30"/>
       <use xlink:href="#DejaVuSans-2e" x="63.623047"/>
       <use xlink:href="#DejaVuSans-37" x="95.410156"/>
       <use xlink:href="#DejaVuSans-35" x="159.033203"/>
      </g>
     </g>
    </g>
    <g id="ytick_13">
     <g id="line2d_30">
      <g>
       <use xlink:href="#m0b78bdc136" x="119.475744" y="199.49342" style="fill: #ffb000; stroke: #ffb000; stroke-width: 0.8"/>
      </g>
     </g>
     <g id="text_35">
      <!-- 1.00 -->
      <g style="fill: #ffb000" transform="translate(90.210119 203.292638) scale(0.1 -0.1)">
       <use xlink:href="#DejaVuSans-31"/>
       <use xlink:href="#DejaVuSans-2e" x="63.623047"/>
       <use xlink:href="#DejaVuSans-30" x="95.410156"/>
       <use xlink:href="#DejaVuSans-30" x="159.033203"/>
      </g>
     </g>
    </g>
    <g id="text_36">
     <!-- $f{\left(x \right)}$ -->
     <g style="fill: #ffb000" transform="translate(84.130431 260.349018) rotate(-90) scale(0.1 -0.1)">
      <use xlink:href="#DejaVuSans-Oblique-66" transform="translate(0 0.015625)"/>
      <use xlink:href="#DejaVuSans-28" transform="translate(35.205078 0.015625)"/>
      <use xlink:href="#DejaVuSans-Oblique-78" transform="translate(74.21875 0.015625)"/>
      <use xlink:href="#DejaVuSans-29" transform="translate(133.398438 0.015625)"/>
     </g>
    </g>
   </g>
   <g id="line2d_31">
    <path d="M 23.544602 199.493809 
L 27.212917 199.494414 
L 31.587771 199.496319 
L 34.923318 199.499752 
L 38.538598 199.507692 
L 41.863175 199.522623 
L 45.17077 199.551209 
L 48.272345 199.600097 
L 51.488199 199.689359 
L 54.769359 199.847381 
L 57.889198 200.0979 
L 61.598509 200.596943 
L 64.706205 201.268784 
L 67.305035 202.08301 
L 69.997705 203.249106 
L 73.180285 205.175318 
L 76.039839 207.544529 
L 78.804864 210.535229 
L 81.576648 214.335922 
L 84.70527 219.706065 
L 87.35941 225.217837 
L 90.400926 232.616693 
L 93.578437 241.486042 
L 96.560247 250.665443 
L 99.706241 260.904642 
L 102.417127 269.823487 
L 104.746743 277.265647 
L 107.117548 284.35414 
L 109.775892 291.389489 
L 111.994757 296.273262 
L 114.445529 300.389047 
L 117.089802 303.112658 
L 119.775626 303.904228 
L 121.481641 303.347841 
L 123.531924 301.609278 
L 127.383715 295.413338 
L 130.343371 288.439889 
L 133.84987 278.364346 
L 137.119747 267.909413 
L 140.513632 256.735451 
L 143.842254 246.112287 
L 147.236694 236.152664 
L 150.46707 227.822083 
L 154.274573 219.651981 
L 157.408105 214.285152 
L 160.365769 210.270389 
L 162.925727 207.531163 
L 166.047305 204.980837 
L 169.076303 203.187688 
L 172.179868 201.89353 
L 174.970754 201.085993 
L 178.279578 200.446225 
L 181.075175 200.096598 
L 183.63755 199.882782 
L 186.671042 199.720039 
L 189.156464 199.636183 
L 192.04809 199.575072 
L 194.565762 199.542699 
L 197.435525 199.520557 
L 199.97915 199.509116 
L 202.344457 199.502706 
L 204.827645 199.498685 
L 207.661076 199.49612 
L 210.159442 199.494891 
L 212.923811 199.494157 
L 215.406886 199.493809 
" clip-path="url(#p75c5f3930c)" style="fill: none; stroke: #1f77b4; stroke-width: 1.5; stroke-linecap: square"/>
   </g>
   <g id="patch_13">
    <path d="M 119.475744 309.124749 
L 119.475744 194.273288 
" style="fill: none; stroke: #000000; stroke-width: 0.8; stroke-linejoin: miter; stroke-linecap: square"/>
   </g>
   <g id="patch_14">
    <path d="M 225 309.124749 
L 225 194.273288 
" style="fill: none"/>
   </g>
   <g id="patch_15">
    <path d="M 13.951488 303.916982 
L 225 303.916982 
" style="fill: none; stroke: #000000; stroke-width: 0.8; stroke-linejoin: miter; stroke-linecap: square"/>
   </g>
   <g id="patch_16">
    <path d="M 13.951488 194.273288 
L 225 194.273288 
" style="fill: none"/>
   </g>
   <g id="text_37">
    <!-- Tukey -->
    <g style="fill: #ffb000" transform="translate(102.416056 188.273288) scale(0.12 -0.12)">
     <defs>
      <path id="DejaVuSans-54" d="M -19 4666 
L 3928 4666 
L 3928 4134 
L 2272 4134 
L 2272 0 
L 1638 0 
L 1638 4134 
L -19 4134 
L -19 4666 
z
" transform="scale(0.015625)"/>
      <path id="DejaVuSans-75" d="M 544 1381 
L 544 3500 
L 1119 3500 
L 1119 1403 
Q 1119 906 1312 657 
Q 1506 409 1894 409 
Q 2359 409 2629 706 
Q 2900 1003 2900 1516 
L 2900 3500 
L 3475 3500 
L 3475 0 
L 2900 0 
L 2900 538 
Q 2691 219 2414 64 
Q 2138 -91 1772 -91 
Q 1169 -91 856 284 
Q 544 659 544 1381 
z
M 1991 3584 
L 1991 3584 
z
" transform="scale(0.015625)"/>
      <path id="DejaVuSans-6b" d="M 581 4863 
L 1159 4863 
L 1159 1991 
L 2875 3500 
L 3609 3500 
L 1753 1863 
L 3688 0 
L 2938 0 
L 1159 1709 
L 1159 0 
L 581 0 
L 581 4863 
z
" transform="scale(0.015625)"/>
      <path id="DejaVuSans-65" d="M 3597 1894 
L 3597 1613 
L 953 1613 
Q 991 1019 1311 708 
Q 1631 397 2203 397 
Q 2534 397 2845 478 
Q 3156 559 3463 722 
L 3463 178 
Q 3153 47 2828 -22 
Q 2503 -91 2169 -91 
Q 1331 -91 842 396 
Q 353 884 353 1716 
Q 353 2575 817 3079 
Q 1281 3584 2069 3584 
Q 2775 3584 3186 3129 
Q 3597 2675 3597 1894 
z
M 3022 2063 
Q 3016 2534 2758 2815 
Q 2500 3097 2075 3097 
Q 1594 3097 1305 2825 
Q 1016 2553 972 2059 
L 3022 2063 
z
" transform="scale(0.015625)"/>
      <path id="DejaVuSans-79" d="M 2059 -325 
Q 1816 -950 1584 -1140 
Q 1353 -1331 966 -1331 
L 506 -1331 
L 506 -850 
L 844 -850 
Q 1081 -850 1212 -737 
Q 1344 -625 1503 -206 
L 1606 56 
L 191 3500 
L 800 3500 
L 1894 763 
L 2988 3500 
L 3597 3500 
L 2059 -325 
z
" transform="scale(0.015625)"/>
     </defs>
     <use xlink:href="#DejaVuSans-54"/>
     <use xlink:href="#DejaVuSans-75" x="45.958984"/>
     <use xlink:href="#DejaVuSans-6b" x="109.337891"/>
     <use xlink:href="#DejaVuSans-65" x="163.623047"/>
     <use xlink:href="#DejaVuSans-79" x="225.146484"/>
    </g>
   </g>
  </g>
  <g id="axes_4">
   <g id="patch_17">
    <path d="M 238.951488 309.124749 
L 450 309.124749 
L 450 194.273288 
L 238.951488 194.273288 
L 238.951488 309.124749 
z
" style="fill: none"/>
   </g>
   <g id="matplotlib.axis_7">
    <g id="xtick_16">
     <g id="line2d_32">
      <g>
       <use xlink:href="#m8080e59227" x="248.544602" y="251.580807" style="fill: #ffb000; stroke: #ffb000; stroke-width: 0.8"/>
      </g>
     </g>
     <g id="text_38">
      <!-- −10 -->
      <g style="fill: #ffb000" transform="translate(237.992258 266.179245) scale(0.1 -0.1)">
       <use xlink:href="#DejaVuSans-2212"/>
       <use xlink:href="#DejaVuSans-31" x="83.789062"/>
       <use xlink:href="#DejaVuSans-30" x="147.412109"/>
      </g>
     </g>
    </g>
    <g id="xtick_17">
     <g id="line2d_33">
      <g>
       <use xlink:href="#m8080e59227" x="296.510173" y="251.580807" style="fill: #ffb000; stroke: #ffb000; stroke-width: 0.8"/>
      </g>
     </g>
     <g id="text_39">
      <!-- −5 -->
      <g style="fill: #ffb000" transform="translate(289.139079 266.179245) scale(0.1 -0.1)">
       <use xlink:href="#DejaVuSans-2212"/>
       <use xlink:href="#DejaVuSans-35" x="83.789062"/>
      </g>
     </g>
    </g>
    <g id="xtick_18">
     <g id="line2d_34">
      <g>
       <use xlink:href="#m8080e59227" x="344.475744" y="251.580807" style="fill: #ffb000; stroke: #ffb000; stroke-width: 0.8"/>
      </g>
     </g>
     <g id="text_40">
      <!-- 0 -->
      <g style="fill: #ffb000" transform="translate(341.294494 266.179245) scale(0.1 -0.1)">
       <use xlink:href="#DejaVuSans-30"/>
      </g>
     </g>
    </g>
    <g id="xtick_19">
     <g id="line2d_35">
      <g>
       <use xlink:href="#m8080e59227" x="392.441315" y="251.580807" style="fill: #ffb000; stroke: #ffb000; stroke-width: 0.8"/>
      </g>
     </g>
     <g id="text_41">
      <!-- 5 -->
      <g style="fill: #ffb000" transform="translate(389.260065 266.179245) scale(0.1 -0.1)">
       <use xlink:href="#DejaVuSans-35"/>
      </g>
     </g>
    </g>
    <g id="xtick_20">
     <g id="line2d_36">
      <g>
       <use xlink:href="#m8080e59227" x="440.406886" y="251.580807" style="fill: #ffb000; stroke: #ffb000; stroke-width: 0.8"/>
      </g>
     </g>
     <g id="text_42">
      <!-- 10 -->
      <g style="fill: #ffb000" transform="translate(434.044386 266.179245) scale(0.1 -0.1)">
       <use xlink:href="#DejaVuSans-31"/>
       <use xlink:href="#DejaVuSans-30" x="63.623047"/>
      </g>
     </g>
    </g>
    <g id="text_43">
     <!-- $x$ -->
     <g style="fill: #ffb000" transform="translate(341.475744 279.85737) scale(0.1 -0.1)">
      <use xlink:href="#DejaVuSans-Oblique-78" transform="translate(0 0.3125)"/>
     </g>
    </g>
   </g>
   <g id="matplotlib.axis_8">
    <g id="ytick_14">
     <g id="line2d_37">
      <g>
       <use xlink:href="#m0b78bdc136" x="344.475744" y="286.088291" style="fill: #ffb000; stroke: #ffb000; stroke-width: 0.8"/>
      </g>
     </g>
     <g id="text_44">
      <!-- −0.2 -->
      <g style="fill: #ffb000" transform="translate(313.192931 289.88751) scale(0.1 -0.1)">
       <use xlink:href="#DejaVuSans-2212"/>
       <use xlink:href="#DejaVuSans-30" x="83.789062"/>
       <use xlink:href="#DejaVuSans-2e" x="147.412109"/>
       <use xlink:href="#DejaVuSans-32" x="179.199219"/>
      </g>
     </g>
    </g>
    <g id="ytick_15">
     <g id="line2d_38">
      <g>
       <use xlink:href="#m0b78bdc136" x="344.475744" y="251.580807" style="fill: #ffb000; stroke: #ffb000; stroke-width: 0.8"/>
      </g>
     </g>
     <g id="text_45">
      <!-- 0.0 -->
      <g style="fill: #ffb000" transform="translate(321.572619 255.380026) scale(0.1 -0.1)">
       <use xlink:href="#DejaVuSans-30"/>
       <use xlink:href="#DejaVuSans-2e" x="63.623047"/>
       <use xlink:href="#DejaVuSans-30" x="95.410156"/>
      </g>
     </g>
    </g>
    <g id="ytick_16">
     <g id="line2d_39">
      <g>
       <use xlink:href="#m0b78bdc136" x="344.475744" y="217.073324" style="fill: #ffb000; stroke: #ffb000; stroke-width: 0.8"/>
      </g>
     </g>
     <g id="text_46">
      <!-- 0.2 -->
      <g style="fill: #ffb000" transform="translate(321.572619 220.872542) scale(0.1 -0.1)">
       <use xlink:href="#DejaVuSans-30"/>
       <use xlink:href="#DejaVuSans-2e" x="63.623047"/>
       <use xlink:href="#DejaVuSans-32" x="95.410156"/>
      </g>
     </g>
    </g>
    <g id="text_47">
     <!-- $f{\left(x \right)}$ -->
     <g style="fill: #ffb000" transform="translate(307.113244 260.349018) rotate(-90) scale(0.1 -0.1)">
      <use xlink:href="#DejaVuSans-Oblique-66" transform="translate(0 0.015625)"/>
      <use xlink:href="#DejaVuSans-28" transform="translate(35.205078 0.015625)"/>
      <use xlink:href="#DejaVuSans-Oblique-78" transform="translate(74.21875 0.015625)"/>
      <use xlink:href="#DejaVuSans-29" transform="translate(133.398438 0.015625)"/>
     </g>
    </g>
   </g>
   <g id="line2d_40">
    <path d="M 248.544602 251.582415 
L 251.693003 251.584292 
L 254.51604 251.587616 
L 257.379203 251.59393 
L 259.961017 251.604052 
L 262.665103 251.622256 
L 265.725238 251.658574 
L 268.820819 251.723807 
L 272.464076 251.863463 
L 275.049994 252.028651 
L 277.530392 252.2645 
L 280.273766 252.649678 
L 283.323055 253.291909 
L 285.669467 253.992509 
L 287.979154 254.90755 
L 290.443924 256.187085 
L 293.320852 258.158881 
L 296.576166 261.125392 
L 299.43089 264.451086 
L 303.463909 270.356067 
L 306.876018 276.360154 
L 310.3859 283.200731 
L 313.7887 289.979575 
L 316.830273 295.600502 
L 319.588207 299.827831 
L 322.680955 302.986169 
L 325.381193 303.904228 
L 328.459992 302.408487 
L 331.375421 298.236939 
L 334.110143 291.8596 
L 336.403346 284.802865 
L 339.29823 274.028508 
L 341.715681 263.863367 
L 344.909648 249.630306 
L 347.921811 236.333885 
L 350.852295 224.449912 
L 353.842996 214.194267 
L 356.672234 206.773481 
L 359.411176 201.979264 
L 362.382452 199.493809 
L 365.644744 199.794352 
L 368.978323 202.83737 
L 372.446499 208.124244 
L 375.170489 213.197057 
L 378.493221 219.816064 
L 381.59206 225.890094 
L 384.501064 231.155415 
L 386.779321 234.848027 
L 389.560093 238.761377 
L 393.300687 242.965551 
L 397.601458 246.413291 
L 401.490555 248.481357 
L 404.784987 249.641365 
L 408.089706 250.407897 
L 411.161075 250.866857 
L 414.388386 251.169524 
L 417.393062 251.341333 
L 420.614048 251.450545 
L 423.805548 251.511631 
L 426.735225 251.543098 
L 429.909399 251.561801 
L 432.586906 251.570379 
L 435.397469 251.575375 
L 437.668787 251.577652 
L 440.406886 251.5792 
" clip-path="url(#p0026d56a82)" style="fill: none; stroke: #1f77b4; stroke-width: 1.5; stroke-linecap: square"/>
   </g>
   <g id="patch_18">
    <path d="M 344.475744 309.124749 
L 344.475744 194.273288 
" style="fill: none; stroke: #000000; stroke-width: 0.8; stroke-linejoin: miter; stroke-linecap: square"/>
   </g>
   <g id="patch_19">
    <path d="M 450 309.124749 
L 450 194.273288 
" style="fill: none"/>
   </g>
   <g id="patch_20">
    <path d="M 238.951488 251.580807 
L 450 251.580807 
" style="fill: none; stroke: #000000; stroke-width: 0.8; stroke-linejoin: miter; stroke-linecap: square"/>
   </g>
   <g id="patch_21">
    <path d="M 238.951488 194.273288 
L 450 194.273288 
" style="fill: none"/>
   </g>
   <g id="text_48">
    <!-- Diff(Tukey) -->
    <g style="fill: #ffb000" transform="translate(312.222931 188.273288) scale(0.12 -0.12)">
     <use xlink:href="#DejaVuSans-44"/>
     <use xlink:href="#DejaVuSans-69" x="77.001953"/>
     <use xlink:href="#DejaVuSans-66" x="104.785156"/>
     <use xlink:href="#DejaVuSans-66" x="139.990234"/>
     <use xlink:href="#DejaVuSans-28" x="175.195312"/>
     <use xlink:href="#DejaVuSans-54" x="214.208984"/>
     <use xlink:href="#DejaVuSans-75" x="260.167969"/>
     <use xlink:href="#DejaVuSans-6b" x="323.546875"/>
     <use xlink:href="#DejaVuSans-65" x="377.832031"/>
     <use xlink:href="#DejaVuSans-79" x="439.355469"/>
     <use xlink:href="#DejaVuSans-29" x="498.535156"/>
    </g>
   </g>
  </g>
 </g>
 <defs>
  <clipPath id="pa4ed28dd3c">
   <rect x="13.951488" y="26.88" width="211.048512" height="114.851461"/>
  </clipPath>
  <clipPath id="pee2121ab02">
   <rect x="238.951488" y="26.88" width="211.048512" height="114.851461"/>
  </clipPath>
  <clipPath id="p75c5f3930c">
   <rect x="13.951488" y="194.273288" width="211.048512" height="114.851461"/>
  </clipPath>
  <clipPath id="p0026d56a82">
   <rect x="238.951488" y="194.273288" width="211.048512" height="114.851461"/>
  </clipPath>
 </defs>
</svg>
