<?xml version="1.0" encoding="UTF-8" standalone="no"?>
<svg
   width="210"
   height="53.536"
   viewBox="0 0 210 53.536"
   version="1.1"
   id="svg101"
   sodipodi:docname="uwlogo_darker.svg"
   inkscape:version="1.2.2 (b0a8486541, 2022-12-01)"
   xmlns:inkscape="http://www.inkscape.org/namespaces/inkscape"
   xmlns:sodipodi="http://sodipodi.sourceforge.net/DTD/sodipodi-0.dtd"
   xmlns="http://www.w3.org/2000/svg"
   xmlns:svg="http://www.w3.org/2000/svg">
  <sodipodi:namedview
     id="namedview103"
     pagecolor="#505050"
     bordercolor="#eeeeee"
     borderopacity="1"
     inkscape:showpageshadow="0"
     inkscape:pageopacity="0"
     inkscape:pagecheckerboard="0"
     inkscape:deskcolor="#505050"
     showgrid="false"
     inkscape:zoom="6.3238095"
     inkscape:cx="101.20482"
     inkscape:cy="26.724398"
     inkscape:window-width="1920"
     inkscape:window-height="1003"
     inkscape:window-x="0"
     inkscape:window-y="0"
     inkscape:window-maximized="1"
     inkscape:current-layer="g97" />
  <defs
     id="defs7">
    <style
       id="style2">.a{fill:none;}.b{clip-path:url(#a);}.c{fill:#464545;}.d{fill:#ffb200;}.d,.e,.f{fill-rule:evenodd;}.e{fill:#ffd000;}.f{fill:#f99300;}</style>
    <clipPath
       id="a">
      <rect
         class="a"
         width="210"
         height="53.536"
         id="rect4" />
    </clipPath>
  </defs>
  <g
     transform="translate(-461.558 -336.47)"
     id="g99">
    <g
       class="b"
       transform="translate(461.558 336.47)"
       clip-path="url(#a)"
       id="g97">
      <path
         class="c"
         d="M684.635,362.662a3.828,3.828,0,0,1-1.048,2.795,3.611,3.611,0,0,1-4.687,0,4.252,4.252,0,0,1,0-5.591,3.614,3.614,0,0,1,4.687,0,3.832,3.832,0,0,1,1.048,2.8m1.727,0a5.119,5.119,0,1,0-5.119,5.139,4.926,4.926,0,0,0,5.119-5.139m-11.594,4.727-.391-1.294a4.412,4.412,0,0,1-1.4.246,2.078,2.078,0,0,1-1.563-.534,2.715,2.715,0,0,1-.513-2.016v-4.563H674.4V357.81H670.9v-3.166h-1.645v3.166h-2.179v1.418h2.179v4.749c0,1.4.081,2.1.862,2.878a3.714,3.714,0,0,0,2.633.945,5.025,5.025,0,0,0,2.015-.412m-8.553-2.487c0-4.316-6.537-2.014-6.537-4.563,0-.987,1.13-1.439,2.282-1.439a3.547,3.547,0,0,1,2.959,1.254l1.07-.883c-.186-.247-1.132-1.747-4.029-1.747-2.467,0-3.928,1.357-3.928,2.837,0,4.131,6.537,1.911,6.537,4.542,0,1.069-1.233,1.522-2.549,1.522a3.974,3.974,0,0,1-3.166-1.336l-1.007.966a4.766,4.766,0,0,0,4.112,1.747c2.857,0,4.254-1.418,4.254-2.9m-10.381-7.092H654.19v9.7h1.644Zm.247-3.166a1.069,1.069,0,1,0-1.069,1.069,1.061,1.061,0,0,0,1.069-1.069m-5.838,8.1a3.322,3.322,0,1,1-6.62-.02,3.375,3.375,0,0,1,3.392-3.7c1.727,0,3.228,1.028,3.228,3.721m1.726-.082c0-3.927-2.652-5.14-4.666-5.14a4.3,4.3,0,0,0-3.639,1.706l-.041-1.418h-1.6v13.526h1.644v-5.078a3.781,3.781,0,0,0,3.331,1.542,4.887,4.887,0,0,0,4.974-5.139m-13.486,0a3.831,3.831,0,0,1-1.047,2.795,3.611,3.611,0,0,1-4.687,0,4.25,4.25,0,0,1,0-5.591,3.613,3.613,0,0,1,4.687,0,3.835,3.835,0,0,1,1.047,2.8m1.727,0a5.119,5.119,0,1,0-5.118,5.139,4.926,4.926,0,0,0,5.118-5.139m-12.458-4.852h-1.644v9.7h1.644Zm.247-3.166a1.069,1.069,0,1,0-1.069,1.069A1.061,1.061,0,0,0,628,354.643m-4.605-1.068H621.75v13.938h1.645Zm-3.125,4.235h-1.706l-3.331,7.812-3.268-7.812H610.2l4.174,9.7-.207.628c-.372.884-.823,1.48-1.789,1.48a2.278,2.278,0,0,1-.844-.143l-.431,1.315a3.6,3.6,0,0,0,1.417.288,2.94,2.94,0,0,0,2.92-2.015Zm-16.158,9.7V361.88a4.6,4.6,0,0,0-1.007-3.31,3.458,3.458,0,0,0-2.632-1.048,3.866,3.866,0,0,0-3.351,1.685l-.042-1.4h-1.562v9.7h1.645V363.2c0-1.356.02-2.488.884-3.351a2.846,2.846,0,0,1,1.953-.782,2.4,2.4,0,0,1,1.85.637,3.3,3.3,0,0,1,.616,2.406v5.406Zm-12.787-4.667a3.152,3.152,0,0,1-.781,2.59,3.254,3.254,0,0,1-2.343.864c-1.028,0-1.973-.452-1.973-1.624,0-1.747,1.891-1.83,3.207-1.83Zm1.6,4.667V362.23c0-1.584-.041-2.694-.966-3.639a4.121,4.121,0,0,0-3.043-1.069,4.891,4.891,0,0,0-4.092,1.932l1.07.905a3.8,3.8,0,0,1,2.9-1.4,2.782,2.782,0,0,1,1.932.6c.473.473.6.863.6,1.912H589.31c-.822,0-2.775-.082-3.968,1.109a2.773,2.773,0,0,0-.8,2.077c0,2.139,1.6,3.1,3.453,3.1a3.794,3.794,0,0,0,3.372-1.6l.042,1.356ZM582.814,364.9c0-4.316-6.537-2.014-6.537-4.563,0-.987,1.131-1.439,2.282-1.439a3.549,3.549,0,0,1,2.96,1.254l1.069-.883c-.185-.247-1.131-1.747-4.03-1.747-2.467,0-3.927,1.357-3.927,2.837,0,4.131,6.537,1.911,6.537,4.542,0,1.069-1.233,1.522-2.549,1.522a3.979,3.979,0,0,1-3.167-1.336l-1.007.966a4.764,4.764,0,0,0,4.111,1.747c2.858,0,4.255-1.418,4.255-2.9m-11.861-2.056a3.15,3.15,0,0,1-.782,2.59,3.255,3.255,0,0,1-2.344.864c-1.027,0-1.973-.452-1.973-1.624,0-1.747,1.892-1.83,3.207-1.83Zm1.6,4.667V362.23c0-1.584-.042-2.694-.966-3.639a4.123,4.123,0,0,0-3.043-1.069,4.89,4.89,0,0,0-4.091,1.932l1.069.905a3.8,3.8,0,0,1,2.9-1.4,2.78,2.78,0,0,1,1.932.6c.473.473.6.863.6,1.912h-2.015c-.822,0-2.776-.082-3.967,1.109a2.773,2.773,0,0,0-.8,2.077c0,2.139,1.6,3.1,3.453,3.1a3.8,3.8,0,0,0,3.372-1.6l.041,1.356Zm-12.088-4.667a3.153,3.153,0,0,1-.781,2.59,3.256,3.256,0,0,1-2.344.864c-1.028,0-1.973-.452-1.973-1.624,0-1.747,1.891-1.83,3.206-1.83Zm1.6,4.667V362.23c0-1.584-.041-2.694-.966-3.639a4.12,4.12,0,0,0-3.043-1.069,4.887,4.887,0,0,0-4.091,1.932l1.069.905a3.8,3.8,0,0,1,2.9-1.4,2.781,2.781,0,0,1,1.933.6c.472.473.6.863.6,1.912h-2.015c-.822,0-2.775-.082-3.967,1.109a2.773,2.773,0,0,0-.8,2.077c0,2.139,1.6,3.1,3.454,3.1a3.8,3.8,0,0,0,3.372-1.6l.041,1.356Zm-7.441-13.938H552.8l-4.646,11.9-4.667-11.9H541.6l5.591,13.938h1.851Z"
         transform="translate(-476.362 -339.634)"
         id="path9"
         style="fill:#000000" />
      <path
         class="d"
         d="M492.935,365.5l-5.393-5.394,5.393-5.393"
         transform="translate(-466.364 -339.844)"
         id="path11" />
      <path
         class="d"
         d="M478.659,365.5l5.393-5.394-5.393-5.393"
         transform="translate(-464.721 -339.844)"
         id="path13" />
      <path
         class="d"
         d="M479.791,353.577l5.393,5.393,5.393-5.393"
         transform="translate(-464.93 -339.634)"
         id="path15" />
      <path
         class="e"
         d="M479.791,367.856l5.393-5.394,5.393,5.394"
         transform="translate(-464.93 -341.277)"
         id="path17" />
      <path
         class="d"
         d="M510.035,365.5l-5.393-5.393,5.393-5.394"
         transform="translate(-469.527 -339.844)"
         id="path19" />
      <path
         class="f"
         d="M495.759,365.5l5.393-5.393-5.393-5.394"
         transform="translate(-467.884 -339.844)"
         id="path21" />
      <path
         class="d"
         d="M496.891,353.578l5.393,5.393,5.394-5.393"
         transform="translate(-468.093 -339.634)"
         id="path23" />
      <path
         class="d"
         d="M496.891,367.857l5.393-5.393,5.394,5.393"
         transform="translate(-468.093 -341.278)"
         id="path25" />
      <path
         class="d"
         d="M527.137,365.5l-5.393-5.394,5.393-5.393"
         transform="translate(-472.69 -339.844)"
         id="path27" />
      <path
         class="d"
         d="M512.861,365.5l5.393-5.394-5.393-5.393"
         transform="translate(-471.047 -339.844)"
         id="path29" />
      <path
         class="d"
         d="M513.993,353.578l5.393,5.393,5.394-5.394"
         transform="translate(-471.256 -339.634)"
         id="path31" />
      <path
         class="d"
         d="M513.993,367.857l5.393-5.394,5.394,5.394"
         transform="translate(-471.256 -341.278)"
         id="path33" />
      <path
         class="d"
         d="M475.833,365.5l-5.393-5.393,5.393-5.394"
         transform="translate(-463.201 -339.844)"
         id="path35" />
      <path
         class="d"
         d="M461.557,365.5l5.393-5.393-5.393-5.394"
         transform="translate(-461.558 -339.844)"
         id="path37" />
      <path
         class="f"
         d="M462.689,353.578l5.393,5.393,5.393-5.393"
         transform="translate(-461.767 -339.634)"
         id="path39" />
      <path
         class="d"
         d="M462.689,367.857l5.393-5.393,5.393,5.393"
         transform="translate(-461.767 -341.278)"
         id="path41" />
      <path
         class="d"
         d="M478.656,348.391,484.049,343l-5.393-5.394"
         transform="translate(-464.72 -336.68)"
         id="path43" />
      <path
         class="e"
         d="M479.788,350.749l5.393-5.393,5.393,5.393"
         transform="translate(-464.93 -338.113)"
         id="path45" />
      <path
         class="d"
         d="M510.036,348.391,504.643,343l5.393-5.394"
         transform="translate(-469.527 -336.68)"
         id="path47" />
      <path
         class="d"
         d="M495.76,348.391,501.154,343,495.76,337.6"
         transform="translate(-467.884 -336.68)"
         id="path49" />
      <path
         class="e"
         d="M496.892,336.47l5.394,5.393,5.393-5.393"
         transform="translate(-468.093 -336.47)"
         id="path51" />
      <path
         class="d"
         d="M496.892,350.749l5.394-5.393,5.393,5.393"
         transform="translate(-468.093 -338.113)"
         id="path53" />
      <path
         class="d"
         d="M512.862,348.391,518.255,343l-5.393-5.394"
         transform="translate(-471.047 -336.68)"
         id="path55" />
      <path
         class="f"
         d="M513.994,350.749l5.393-5.393,5.393,5.393"
         transform="translate(-471.257 -338.113)"
         id="path57" />
      <path
         class="d"
         d="M475.832,348.392,470.439,343l5.393-5.394"
         transform="translate(-463.201 -336.68)"
         id="path59" />
      <path
         class="d"
         d="M462.688,350.75l5.393-5.394,5.394,5.394"
         transform="translate(-461.767 -338.114)"
         id="path61" />
      <path
         class="e"
         d="M492.933,382.6l-5.393-5.394,5.393-5.393"
         transform="translate(-466.364 -343.007)"
         id="path63" />
      <path
         class="d"
         d="M478.657,382.6l5.393-5.394-5.393-5.393"
         transform="translate(-464.721 -343.007)"
         id="path65" />
      <path
         class="d"
         d="M479.789,370.68l5.393,5.393,5.393-5.394"
         transform="translate(-464.93 -342.797)"
         id="path67" />
      <path
         class="d"
         d="M479.789,384.959l5.393-5.393,5.393,5.393"
         transform="translate(-464.93 -344.441)"
         id="path69" />
      <path
         class="f"
         d="M510.035,382.6l-5.393-5.394,5.393-5.392"
         transform="translate(-469.527 -343.008)"
         id="path71" />
      <path
         class="d"
         d="M495.758,382.6l5.393-5.394-5.393-5.392"
         transform="translate(-467.884 -343.008)"
         id="path73" />
      <path
         class="d"
         d="M496.89,370.681l5.394,5.393,5.393-5.393"
         transform="translate(-468.093 -342.798)"
         id="path75" />
      <path
         class="d"
         d="M496.89,384.959l5.394-5.393,5.393,5.393"
         transform="translate(-468.093 -344.441)"
         id="path77" />
      <path
         class="d"
         d="M512.862,382.6l5.393-5.394-5.393-5.393"
         transform="translate(-471.047 -343.007)"
         id="path79" />
      <path
         class="d"
         d="M513.994,370.68l5.393,5.393,5.393-5.394"
         transform="translate(-471.257 -342.797)"
         id="path81" />
      <path
         class="d"
         d="M475.832,382.6l-5.393-5.394,5.393-5.393"
         transform="translate(-463.201 -343.007)"
         id="path83" />
      <path
         class="d"
         d="M462.688,370.68l5.393,5.393,5.394-5.394"
         transform="translate(-461.767 -342.797)"
         id="path85" />
      <path
         class="d"
         d="M492.933,399.706l-5.393-5.394,5.393-5.394"
         transform="translate(-466.364 -346.171)"
         id="path87" />
      <path
         class="d"
         d="M479.789,387.785l5.393,5.393,5.393-5.393"
         transform="translate(-464.93 -345.961)"
         id="path89" />
      <path
         class="f"
         d="M495.757,399.707l5.393-5.394-5.393-5.393"
         transform="translate(-467.883 -346.171)"
         id="path91" />
      <path
         class="d"
         d="M496.888,387.786l5.394,5.393,5.393-5.394"
         transform="translate(-468.093 -345.961)"
         id="path93" />
      <path
         class="c"
         d="M638.619,381.24h-2.59l1.3-3.186Zm1.809,2.35-2.629-6.32h-.932l-2.629,6.32h.83l.681-1.678h3.141l.681,1.678Zm-6.637-1.724c0-2.527-4.017-1.279-4.017-3.011,0-.7.6-1.054,1.5-1.054a2.287,2.287,0,0,1,1.91.914l.54-.43a2.669,2.669,0,0,0-2.451-1.165c-1.51,0-2.32.857-2.32,1.752,0,2.478,4.017,1.351,4.017,3,0,.773-.662,1.174-1.688,1.174a2.25,2.25,0,0,1-1.966-.97l-.56.438a2.8,2.8,0,0,0,2.536,1.222c1.537,0,2.5-.708,2.5-1.873m-7.176-.626h-2.591l1.3-3.186Zm1.809,2.35-2.629-6.32h-.932l-2.628,6.32h.83l.68-1.678h3.142l.679,1.678Zm-8.22-2.35h-2.591l1.3-3.186Zm1.809,2.35-2.629-6.32h-.932l-2.629,6.32h.83l.681-1.678h3.141l.681,1.678Zm-5.8-6.32h-.829l-2.106,5.4-2.117-5.4H610.3l2.535,6.32h.839Zm-8.388.681v-.681H603.52v6.32h.783v-2.88h3.29v-.672H604.3v-2.088Zm-6.3,2.479a2.354,2.354,0,1,1-2.34-2.619,2.37,2.37,0,0,1,2.34,2.619m.82,0a3.163,3.163,0,1,0-3.16,3.309,3.114,3.114,0,0,0,3.16-3.309m-9.022-3.16h-.876l-1.827,2.852-1.844-2.852h-.914l2.33,3.543v2.777h.783v-2.777Zm-5.686.681v-.681h-5.144v.681h2.182v5.639h.782v-5.639Zm-5.983-.681h-.782v6.32h.782Zm-2.069,4.6c0-2.527-4.017-1.279-4.017-3.011,0-.7.6-1.054,1.5-1.054a2.289,2.289,0,0,1,1.911.914l.54-.43a2.674,2.674,0,0,0-2.452-1.165c-1.51,0-2.32.857-2.32,1.752,0,2.478,4.017,1.351,4.017,3,0,.773-.662,1.174-1.687,1.174a2.25,2.25,0,0,1-1.967-.97l-.559.438a2.791,2.791,0,0,0,2.535,1.222c1.538,0,2.5-.708,2.5-1.873m-6.673-2.759c0,1.127-1.044,1.192-1.985,1.192h-1.259v-2.377h1.324a2.289,2.289,0,0,1,1.64.4,1.029,1.029,0,0,1,.279.783m1.138,4.483-1.968-2.712a1.863,1.863,0,0,0,1.613-1.808,1.733,1.733,0,0,0-.514-1.258,2.714,2.714,0,0,0-2.031-.541h-2.265v6.32h.782v-2.637h1.557l1.893,2.637Zm-6.338,0v-.69h-3.748v-2.19h3.4v-.672h-3.4v-2.088H567.6v-.681h-4.417v6.32Zm-5.369-6.32h-.83l-2.106,5.4-2.116-5.4h-.858l2.536,6.32h.839Zm-6.748,0h-.783v6.32h.783Zm-2.237,6.32v-6.32h-.727v5.061l-3.653-5.061h-.8v6.32h.727v-5.108l3.691,5.108Zm-6.58-2.637V377.27H546v3.691a2.025,2.025,0,0,1-.484,1.594,2.065,2.065,0,0,1-2.647-.028,2.2,2.2,0,0,1-.485-1.688v-3.57H541.6v3.655a2.682,2.682,0,0,0,.643,2.05,2.917,2.917,0,0,0,3.9,0,2.538,2.538,0,0,0,.643-2.022"
         transform="translate(-476.362 -343.989)"
         id="path95"
         style="fill:#000000" />
    </g>
  </g>
</svg>
